<svg xmlns="http://www.w3.org/2000/svg"><defs><font id="AlexBrush" horiz-adv-x="317"><font-face font-family="Alex Brush" panose-1="2 0 4 0 0 0 0 0 0 0" ascent="825" descent="-425" alphabetic="0"/><glyph glyph-name="space" horiz-adv-x="198"/><glyph unicode="!" glyph-name="exclam" horiz-adv-x="259" d="M139 117q-7 0-4 19 12 69 93 190t110 122q12 0 26-4t15-13q0-3-4-7-42-44-123-151t-92-132-21-24zm-8-51l13-9 13-23-12-22-28-10-27 11-13 25q0 28 39 28 15 0 28-9z"/><glyph unicode="&quot;" glyph-name="quotedbl" horiz-adv-x="206" d="M206 438q0-42-32-75t-43-34-12 2 21 27 22 39-13 27-14 18q0 30 30 30 15 0 28-10t13-24zm-101 0q0-42-32-75t-48-34q-8 0-8 3 4 5 10 12t13 14q21 23 21 38t-13 28-14 18q0 30 29 30 15 0 28-10t14-24z"/><glyph unicode="#" glyph-name="numbersign" horiz-adv-x="791" d="M577 474l166 4q35 0 35-7t-23-16q-56-22-99-22h-94l-66-175 144 1q50 0 50-11 0-8-22-15-54-19-99-19l-90-1-35-96q-27-79-52-79-12 0-12 16t5 38q18 45 45 121l-197-1-35-95q-27-79-51-79-13 0-13 17t6 37q21 48 49 120l-105-1q-94 0-94 26 0 17 51 20l166 1q25 68 63 174-102-1-105-1-80 0-86 22-8 20 49 24 22 0 158-2l46 130q16 44 25 44t9-27q-2-59-16-98l-18-49q156-2 191-2 64 171 82 174 10 2 10-26-3-55-19-97l-19-50zm-261-42l-66-174h196q11 32 62 175l-192-1z"/><glyph unicode="$" glyph-name="dollar" horiz-adv-x="537" d="M184 220q65 0 125 24t90 73q11 19 11 32 0 22-29 34t-93 25q-84-112-135-187 10-1 31-1zm39 274q0-29 52-45 46 61 110 144-86-8-132-49-30-28-30-50zm-80-286Q58 80 58 42q0-17 11-22 4-3-2-10T50 3Q35 3 35 32t19 83q10 26 55 98-77 19-96 79-6 14-6 30t10 34q18 31 46 31 6 0 6-2 0-4-12-11l-17-12q-11-11-11-31 0-37 27-65t62-39q57 86 133 189-67 18-67 67 0 36 45 72 69 54 172 58 97 121 108 121t16-5 6-12-8-17q-33-38-75-90 83-12 83-65 0-37-39-52-23-9-38-9t-16 8q0 4 14 5 52 3 52 39 0 47-71 56-53-65-120-152 31-4 93-21 48-19 48-55t-33-72-68-52q-74-34-168-34-16 0-42 2z"/><glyph unicode="%" glyph-name="percent" horiz-adv-x="701" d="M645 705q4 2 10 2t12-6 7-14-9-18Q530 514 356 280T149-39q-6-18-6-34t7-21 4-11q-7-10-21-10-17 0-17 33t23 98 191 295 276 354q-50-24-121-45t-120-23q1-4 1-9 0-35-67-117-79-97-135-97h-16q-26 0-41 27-12 19-12 42 0 60 87 168t142 109q51 0 51-54 0-14-5-36 1-2 10-2t31 3q101 12 234 74zm-57-542q0-13-23-22 1-4 1-9 0-35-67-117-79-97-135-97h-16q-26 0-41 27-12 19-12 42 0 60 87 168t142 109q51 0 51-54 0-14-5-36 0-1 9-3t9-8zM301 640q-34 0-96-80t-63-118 24-38q43 0 109 78t66 112q-16 9-40 46zm200-456q-34 0-96-80T342-14t24-38q43 0 109 78t66 112q-16 9-40 46z"/><glyph unicode="&amp;" glyph-name="ampersand" horiz-adv-x="753" d="M390 445q56 0 56-23 0-6-4-10-13-22-56-22t-79 26q-54-16-126-68Q69 265 69 185q0-89 121-99 24 148 144 222 39 25 84 35t61 14 56 10 46 8q93 16 119 36t27 38q0 5-1 11t2 7 9-3q8-11 8-27t-20-39q-30-30-83-42-20-5-53-11t-49-11q19-18 19-54 0-74-88-145-97-78-260-78-1-8-1-25 0-70 46-110t118-41q25 0 43 16t18 38q0 7-4 16t7 9 12-26-23-47-53-21q-78 0-130 43-59 47-59 123 0 17 1 26-87 8-132 44-41 35-41 77 0 97 148 185 69 42 135 63-28 31-28 81 0 26 12 43 33 47 100 75 79 35 160 35 107 0 105-67-2-29-24-50t-50-22-27 14q0 10 13 10l17-3q14 0 27 17t14 34q0 27-31 39-20 7-38 7-84 0-140-35t-82-78q-15-25-15-52t12-41q39 11 69 11zm136-158q0 44-38 44-12 0-49-9-193-72-225-237 22 0 44 3 129 14 205 82 63 57 63 117zM416 419q0 9-26 9t-57-6q25-16 54-16t29 13z"/><glyph unicode="'" glyph-name="quotesingle" horiz-adv-x="130" d="M79 269q-6 0-6 4t27 38 27 50-13 27-14 18q0 30 29 30 15 0 28-9t14-24q0-43-38-88t-54-46z"/><glyph unicode="(" glyph-name="parenleft" horiz-adv-x="375" d="M615 760q20-3 20-12t-25-11q-175-17-324-146-109-96-171-214T52 174 90 43 201-9q23-2 23-11 0-14-24-14h-9q-80 8-138 72T-5 206q0 80 41 170 59 129 217 242 176 127 362 142z"/><glyph unicode=")" glyph-name="parenright" horiz-adv-x="651" d="M30-35Q9-32 9-23t25 11Q209 5 358 134q111 96 173 213t62 204q0 171-150 183-22 1-22 11 0 14 23 14h9q80-8 138-72t58-167q0-80-41-171-59-129-217-242Q215-20 30-35z"/><glyph unicode="*" glyph-name="asterisk" horiz-adv-x="352" d="M301 364q24 0 24-7 0-3-10-9t-28-8-27-2q-26-1-44-1l46-62q19-25 19-30 0-25-89 72l-25-84q-6-15-13-15-9 0-9 25l14 76-52-39q-23-16-32-16t-10 7 12 19l66 48H80q-40 0-40 13 0 9 22 12l89 4q-22 33-37 54-18 21-18 30t7 10 20-12l51-64 18 74q3 17 12 33 2 1 3 1 7 0 7-25t-12-87l58 40q24 17 27 17t4 0q8-3-3-19t-66-55h79z"/><glyph unicode="+" glyph-name="plus" horiz-adv-x="406" d="M235 437q11 0 11-27t-15-150h85q43 0 80 2 1-2 1-3 0-14-63-26-37-5-111-17-13-49-33-99t-32-50q-10 0-15 11t-3 20l31 114q-152 0-152 23 0 10 8 17t21 7 44 1h93q35 104 49 177h1z"/><glyph unicode="," glyph-name="comma" horiz-adv-x="194" d="M168 29q0-42-32-75T93-80t-12 2 21 26 22 40-13 27-14 18q0 30 29 30 15 0 28-10t14-24z"/><glyph unicode="-" glyph-name="hyphen" horiz-adv-x="297" d="M105 260l97-1q58 0 83 3 1-1 1-3 0-15-79-29-43-6-80-12t-48-7-35 4-25 20q0 10 8 17t15 7 12 1h51z"/><glyph unicode="." glyph-name="period" horiz-adv-x="226" d="M141 63l13-10 14-22-12-22-28-10-27 10-13 25q0 29 38 29 15 0 28-10z"/><glyph unicode="/" glyph-name="slash" horiz-adv-x="604" d="M561 698q11 0 17-6t7-14-9-18Q441 505 267 271T60-48q-6-18-6-34t8-20 3-12q-7-10-21-10-17 0-17 33T49 2q31 85 261 394 227 302 251 302z"/><glyph unicode="0" glyph-name="zero" horiz-adv-x="576" d="M628 615q-2-14-26-5t-38 10-17 0q31-10 57-35 56-53 56-132t-44-161-118-147Q325-9 154-9q-20 0-38 3Q33 5 33 111t78 233q48 80 135 155t177 115q-4 4-4 8 0 12 33 12 10 0 24-1 29 10 77 10 75 0 75-28zM79 96q0-76 49-80 10-1 20-1 135 0 297 142t162 304q0 76-32 102-49 38-92 46-93-29-196-127-76-74-126-151Q79 204 79 96z"/><glyph unicode="1" glyph-name="one" horiz-adv-x="349" d="M301 79q11 0 11-11 0-14-15-14-67 0-143-24-37-13-87-33T13-23t-9 7-5 21 9 17q27 12 101 37 125 229 251 457-55-34-140-66-15-6-15 10 0 8 9 13 68 25 189 120l6 10q10 19 42 19t32-15q0-3-3-8L158 67q68 12 143 12z"/><glyph unicode="2" glyph-name="two" horiz-adv-x="648" d="M528-11q38 0 73 15 44 18 44 53 0 40-61 62-8 3-8 8 0 13 17 8 83-24 83-80 0-47-51-75T518-49 377-20L238 30q-47 14-75 14Q127 27 45-2 33-5 24-5 0-5 0 13q0 22 26 42 38 25 111 25 17 0 34-1 234 141 304 196t104 97q47 56 57 120 2 12 2 17 0 54-67 54t-161-43-149-91q-4-4-9-4-10 0-10 12 0 7 6 12 69 59 183 110t202 51 87-71q0-78-93-172-40-42-142-122T197 67q43-5 153-41t178-37z"/><glyph unicode="3" glyph-name="three" horiz-adv-x="718" d="M652 612q94 0 94-84v-7q-5-87-179-141 151-16 151-106 0-15-4-28-30-118-177-192-129-64-282-64-98 0-160 31t-63 89q0 31 22 71t90 69 115 29q12 0 12-8 0-10-14-10-33 0-85-32t-63-68q-5-20-5-34 0-87 119-108 31-6 63-6 87 0 178 42 140 65 189 187 7 17 7 34 0 40-42 58t-100 18-97-15q-9-4-19-4-18 0-18 17 0 12 8 21t21 9q86 0 161 29 96 38 108 107 1 5 1 13 0 43-53 43t-122-25-115-56q-5-3-7-3-7 0-7 13 0 30 19 34 23 7 73 54 6 6 11 4t5-7-4-10-10-10q107 46 179 46z"/><glyph unicode="4" glyph-name="four" horiz-adv-x="568" d="M406 204q70-24 108-24t61 17q29 24 29 58 0 11-3 23t7 13 15-10q19-34 19-61 0-68-122-68-52 0-130 24-38-71-48-154-1-12-1-33t12-43q2-6 2-9 0-18-16-18-11 0-16 6-14 30-14 72 0 76 45 189-77 22-134 22T41 158q-12-4-20 6t-8 25q0 26 22 33 15 6 56 14 54 29 164 108t141 99q192 121 228 175l9 14q5 7 17 7 34 0 34-19 0-1-178-257-58-86-100-159zm-175 47q53 0 137-32 44 96 165 269l23 34q-63-39-202-139T162 246q41 5 69 5z"/><glyph unicode="5" glyph-name="five" horiz-adv-x="662" d="M748 567q-30-13-73-13t-127 13-143 13-97-28q-8-6-10 9-2 10 0 26t9 22q23 17 45 19t64 3 136-26 125-26 62 14 30 39q0 15 12 15t12-26q0-35-45-54zM138-8Q66-8 17 18t-50 75 65 112q10 10 18 10t8-7-10-18q-36-34-36-73t46-67 108-28q119 0 243 86t148 199q2 14 2 20 0 50-62 76-43 15-90 15-69 0-129-29l-105-51q-2-1-6-1-9 0-9 13t13 20l118 149q9 11 37 11t28-6q0-2-2-4L236 394q128 51 183 51 214 0 214-106 0-17-6-36-41-129-181-217Q296-8 138-8z"/><glyph unicode="6" glyph-name="six" horiz-adv-x="612" d="M599 601l92 5q22 0 38-10t16-22-11-15q-154-30-363-132-96-46-182-135Q85 186 85 98 85 7 210 7q69 0 176 32 49 15 99 54t50 84q0 35-46 35-71 0-150-45T246 48q-3-19-17-19-12 0-9 17 16 92 102 146 88 55 180 55t92-68q0-53-62-103-50-38-111-57-125-38-209-38T89 14t-39 87q0 86 82 190t209 172q155 84 253 117-16 4-19 5t-3 6q2 4 11 7t16 3z"/><glyph unicode="7" glyph-name="seven" horiz-adv-x="494" d="M149 14q0-7 2-17 1-12-12-12-16 0-17 18-1 5-1 17 0 106 134 258t323 300q-160 22-229 22t-112-18q-57-25-79-91-8-20-23-20t-21 6-6 12q0 9 4 22l18 36q10 21 10 36 0 31 10 29 8-6 8-31 70 63 188 63 51 0 133-19t126-26l51 38q3 2 9 2t20-13 13-20-5-10Q453 422 288 259q-49-49-94-121T149 14z"/><glyph unicode="8" glyph-name="eight" horiz-adv-x="608" d="M515 370q73-46 73-108t-77-127T327 26 135-18 22 15Q1 39 1 72q0 60 61 125 114 124 269 204-62 38-62 73 0 11 4 20 22 60 96 98t140 38 100-20q27-16 27-40t-18-49l84 27q8 2 12-2t4-10q0-19-29-26-118-26-266-95 60-25 92-45zm72 216q-39 14-80 14-71 0-123-32t-52-70q0-42 62-70 71 34 191 82 21 41 21 55t-19 21zM56 66q0-65 81-65 65 0 155 37 239 98 239 200 0 60-86 104l-86 44q-88-50-182-135Q56 140 56 66z"/><glyph unicode="9" glyph-name="nine" horiz-adv-x="440" d="M134 313q-59 0-59 48 0 85 107 153 86 54 203 83t196 29h16q7 0 6-9t-10-22-22-12-34 1q-124 0-255-58-156-69-161-153-2-33 32-33 67 0 220 98 99 63 188 135 4 4 18 4 42 0 42-21 0-8-9-15-52-44-110-97Q162 130 162-91q0-39 15-44 15-6 5-13-4-4-10-4t-11 0q-41 5-41 61 0 106 102 264t232 285Q245 313 134 313z"/><glyph unicode=":" glyph-name="colon" horiz-adv-x="226" d="M181 257l13-10 14-22-12-22-28-10-27 10-13 25q0 29 38 29 15 0 28-10zM141 63l13-10 14-22-12-22-28-10-27 10-13 25q0 29 38 29 15 0 28-10z"/><glyph unicode=";" glyph-name="semicolon" horiz-adv-x="226" d="M181 257l13-10 14-22-12-22-28-10-27 10-13 25q0 29 38 29 15 0 28-10zM168 29q0-42-32-75T93-80t-12 2 21 26 22 40-13 27-14 18q0 30 29 30 15 0 28-10t14-24z"/><glyph unicode="&lt;" glyph-name="less" horiz-adv-x="318" d="M85 256q0 14 52 85l66 90q8 11 17 11t9-6q0-15-99-153 97-124 97-135t-10-12l-8 4q-34 48-121 110-3 2-3 6z"/><glyph unicode="=" glyph-name="equal" horiz-adv-x="406" d="M195 381l131-1q63 0 103 2 1-1 1-3 0-14-79-28l-111-18q-7-2-30-2t-90 4-68 20q0 11 8 17t16 7h14q54 2 105 2zm15-121l104-1q57 0 82 3 1-2 1-4t-7-8q-17-10-65-18t-88-14-63-7-67 3q-88 6-88 21 0 10 8 17t16 7h15l25 1h127z"/><glyph unicode="&gt;" glyph-name="greater" horiz-adv-x="318" d="M229 315q0-20-119-175-8-11-16-11t-9 6q0 15 99 153-98 125-98 136t11 11l8-4q36-48 121-110 3-1 3-6z"/><glyph unicode="?" glyph-name="question" horiz-adv-x="401" d="M166 129q-9-16-15-16t-7 8 2 15q26 53 88 93 90 58 110 75 43 39 43 71t-36 52-92 20-101-26-52-76q-2-13 10-24t36-12 53 30q3 3 6 3t3-6-5-12q-31-34-71-34-25 0-40 15t-16 37v5q6 67 65 104t123 37q166 0 166-95 0-61-54-103-12-9-120-72-70-40-96-89zm-26-71l13-9 14-22-13-22-28-10L99 5 87 30q0 28 38 28 15 0 28-9z"/><glyph unicode="@" glyph-name="at" horiz-adv-x="842" d="M802 439q0-125-128-238Q478 26 233 26q-27 0-42 1-79 5-128 53T14 204t41 167q52 113 205 222 172 123 358 123 99 0 151-37t52-97q0-35-13-62t-13-28q7-24 7-53zm-288 44l14 3q11 0 20-9t10-16-19-36-64-92q-39-64-39-92t24-29q35 0 122 79t158 166v2q-7 54-50 93-69 61-167 61-66 2-76 5-1 3 1 4 47 16 90 16t96-13q102-24 145-97 3-4 4 0 8 24 8 50t-22 58q-42 60-156 60t-245-76-215-193-85-245T201 48q15-1 30-1 197 0 373 157 122 110 137 208-2 2-4 2L615 279q-92-89-151-89-15 0-26 4-44 17-44 66 0 8 2 26-2 2-4 2-110-105-143-105-25 0-47 16-29 18-29 53 0 73 102 172t187 100q38 0 46-29l2-6v-2q2-4 4-4zM215 239q0-34 25-34 50 0 139 102 22 24 73 95t52 72-1 1q-7 12-24 12-63 0-163-93T215 239z"/><glyph unicode="A" glyph-name="A" horiz-adv-x="1020" d="M946 286l97 2q36 0 36-5 0-13-146-23-93-182-93-248 0-46 29-46 11 0 27 13t20 14 4-5q-5-18-30-30t-43-12-28 2q-24 9-24 58 0 101 77 257l-120-3Q618 129 483 30 281-117 167-117q-7 0-14 1Q-1-103-1 42q0 86 54 182 72 128 197 218t224 91 99-73q0-49-30-109t-61-76q-3-1-6-1t-4 2l33 54q34 53 34 93t-17 64-56 25q-78 0-186-87T115 211 58 13Q58-94 167-94q104 0 282 134 79 59 257 223-35-2-65-7-64-12-60 4 4 37 38 37 66-8 111-8 86 79 257 259 115 121 140 121 11 0 11-17t-9-53-20-44q-23-16-43-43t-57-103-63-123zm80 244L770 290h59q21-1 52-1 29 57 145 241z"/><glyph unicode="B" glyph-name="B" horiz-adv-x="819" d="M770 189q0-36-16-68Q720 49 624 1T424-47Q266-47 209 61 106-25 62-25q-8 0-14 3Q18-6 18 47t44 130 77 91q15 5 23 5 29 0 44-48l30-96q29 31 79 99l89 120q164 213 215 233 18 7 37 7t31-8 13-20q0-18-29-21-30-17-114-99T456 335Q344 179 249 95 310-26 432-26q74 0 147 46t109 115q16 29 16 65t-28 68-72 48q-20 3-64 8t-44 19q0 5 4 9 12 14 31 14 11 0 21-4t17-6 14-5q22-2 38-2 66 0 120 21 69 27 88 81 12 35 12 63 0 69-67 103-58 30-159 30-159 0-285-60-64-30-121-89t-58-101q0-29 15-48 6-8 21-20 5-3-6-3-62 14-62 83t70 130q52 45 117 73 135 58 307 58 123 0 196-36 85-40 85-121 0-32-13-65-21-60-109-91-66-23-142-24 59-3 99-43t41-101zm-639 37q-1 0-5-2Q52 117 52 52q0-27 13-49 3-5 10-5 32 0 123 91l-3 4q-40 133-64 133z"/><glyph unicode="C" glyph-name="C" horiz-adv-x="726" d="M541 278q-60 0-101 27t-41 70q0 53 69 106 12 9 18 9t6-4q0-10-16-16-56-45-56-91 0-33 30-55t75-23q98 0 185 94 45 49 45 113t-48 95q-40 28-108 28-98 0-197-49-122-59-220-183T83 159q0-91 62-140t154-50q105 0 206 51 77 40 133 102 16 18 25 18 6 0 6-10t-11-22Q605 52 505 0 382-65 258-65T72 17Q31 71 31 146q0 33 8 71 27 128 142 249 83 87 197 135t216 49q54 0 94-13 109-34 109-137 0-63-37-109-92-113-219-113z"/><glyph unicode="D" glyph-name="D" horiz-adv-x="921" d="M187 25Q99-43 58-43q-22 0-32 21T15 25q0 48 40 144t78 96q19 0 32-75t28-109q68 72 197 240 162 213 215 233 18 7 37 7t31-8 13-20q0-17-29-20-35-19-108-92-73-71-117-133Q325 139 212 45q56-83 176-83 13 0 39 2 278 26 394 241 47 86 47 170t-61 151q-49 55-106 68t-118 13q-154 0-284-71-137-75-137-168 0-25 13-41t19-18h-6q-26 5-46 26-22 26-22 55 0 100 125 172t295 72q78 0 160-18t149-86q77-80 77-181 0-75-44-155Q806 56 655-8 534-59 394-59T187 25zM51 29q0-31 12-54 43 19 104 79-29 48-36 75t-11 73Q51 103 51 29zm143 280q1 0 2 1v-2l-2 1z"/><glyph unicode="E" glyph-name="E" horiz-adv-x="691" d="M504 407q98 0 98-37 0-8-6-18-24-37-87-37-41 0-84 14t-65 31q-93-27-165-83T86 150q-19-38-19-74 0-56 46-91t137-35q25 0 52 3Q461-30 555 55q79 70 79 147 0 61-59 61-71 0-163-76-23-19-39-48t-16-57 28-35q10-4 10-10 0-10-20-8-48 1-48 63t63 116q86 74 182 74 72 0 91-45 8-21 8-42 0-93-103-175Q445-80 256-80 139-80 71-37T3 77q0 41 26 82 92 146 314 217-33 38-33 81t21 72q41 56 123 92 98 43 196 43 57 0 91-18t35-57-28-65-60-27-31 15q0 9 13 9l20-3q20 0 36 21t17 45q0 34-39 50-25 10-47 10t-31-1q-86-5-168-60-96-63-96-142 0-29 20-54 64 20 122 20zm-105-36q43-34 99-34t56 31q0 14-50 14t-105-11z"/><glyph unicode="F" glyph-name="F" horiz-adv-x="632" d="M528 251q97-3 102-3t7 0q24 2 24-7 0-14-39-14l-85 2q-26-2-31-5-42-52-113-150T322-44q0-8 18 4 11 0 11-3 0-5-22-15l-28-15q-19-16-43-16t-23 12q1 24 71 121t145 186q-72-13-110-13-4 1-4 6t12 16 25 10 44 1h51q34 46 151 212 48 69 48 114 0 70-104 70-81 0-190-45T172 478q-65-54-103-117T31 249q0-79 94-79 8 0 17 1 61 5 115 69t55 109q0 4-1 9 26-5 26-31 0-43-56-101-76-79-176-79-55 0-86 29t-31 79q0 118 144 238 104 85 221 128t203 44 129-25 43-69-39-101q-23-37-161-219z"/><glyph unicode="G" glyph-name="G" horiz-adv-x="828" d="M548 487l-2-32q0-65 70-65 58 0 117 40t59 81-48 69q-32 19-100 19-101 0-225-48T185 397Q42 257 42 140q0-69 52-111t138-42q118 0 274 89 130 73 195 155l29 43q-18 0-149-10t-150-15-31-5q-33 0-33 16 0 25 76 41t257 17 239-14q9-2 9-5 0-11-69-16-86-7-88-7-102-134-264-414-9-16-17-16t-9 13q0 35 56 135l70 131Q563 70 464 22 335-39 221-39T46 10t-61 133q0 153 185 311 93 80 225 133t231 53 153-39q41-32 41-72 0-57-70-109t-140-53q-93 0-93 107 0 41 17 41 14 0 14-28z"/><glyph unicode="H" glyph-name="H" horiz-adv-x="951" d="M283-46q0 28 115 217-82 0-109-7-45-11-67-45-8-11-13-12t-6 4 4 10q38 51 75 70t117 19h24q61 93 171 276 41 77 41 125 0 77-94 78h-11q-128 0-233-64T131 466 70 295q0-93 87-93 69 0 118 61t49 116q0 31-16 51-2 2-2 5 0 7 8 7 4 0 6-3 20-26 20-62 0-61-50-124t-105-71q-17-3-33-3-64 0-99 41-34 37-34 100 0 26 6 53 30 135 173 236t323 101q69 0 118-29t50-83-37-112L471 208q32-1 114-9t124-9 56 1l38 63q97 163 224 304t223 176q3 1 6 1 7 0 7-8 0-3-3-5-64-36-183-174T870 263l-39-66q46 6 66 23 4 3 7-3t-1-10q-30-23-85-33Q748 44 748-9q0-34 29-34 20 0 46 13t36 23 11 10 1-6-4-11q-17-16-51-34t-55-18-31 7q-32 21-32 73t53 152q-37-3-69-3-11 0-235 7Q376 58 333-34q-13-27-31-27t-19 15z"/><glyph unicode="I" glyph-name="I" horiz-adv-x="576" d="M714 396l-7 27q0 8 8 8 3 0 8-3 23-17 23-45t-36-54-91-27q-17 0-34 3-69-127-168-234Q285-69 177-69 21-69 21 115q0 152 81 245 68 80 156 80 23 0 47-8 59-23 59-97t-61-156-125-81q-72 0-72 78 0 22 9 46t22 24q9 0 9-9 0-5-9-25t-9-35 16-29 35-14q59 0 109 72t51 142q0 53-38 70-13 5-27 5-71 0-142-98-69-99-69-217Q63 43 91 2q29-42 80-42 132 0 344 359-110 33-110 130 0 129 131 206 83 48 161 48 61 0 110-20 69-27 69-82 0-12-5-23t-12-11q-13 13-31 13-85 0-233-253 8-1 17-1 34 0 68 20t34 50zm-44 279l-66-29-106-87-40-129 74-86q55 90 142 179t145 90q15 0 26-7-1 28-39 49-34 20-85 20z"/><glyph unicode="J" glyph-name="J" horiz-adv-x="822" d="M684 477q0-8-20-8t-41 20-21 50 18 54q38 52 127 74 64 16 128 16h8q9 0 49-3-2 13 10 24t29 12q30 0 29-43 108-19 114-58 1-9 1-15 0-20-11-20t-8 24q-25 37-99 52-18-81-188-352Q696 126 546 6 374-130 222-130q-93 0-138 47T39 21t22 99q53 102 153 159 74 43 137 43 68 0 106-33t39-83q0-54-40-98-25-28-40-28-4 0-4 3t3 10q36 53 36 98t-25 75q-29 31-78 31t-111-40q-75-49-123-147Q89 61 89 9t39-85 105-33q254 0 531 446 166 266 170 326-60 3-63 3-47 0-120-26t-96-64q-9-15-9-33t19-40 19-26z"/><glyph unicode="K" glyph-name="K" horiz-adv-x="936" d="M832 697q21 0 21-15 0-61-168-349 7-27 22-63l298 227q171 130 231 167 134 80 263 80 37 0 68-12 19-7 19-26t-10-19q-6 0-12 8t-38 8-103-16q-112-25-254-112-89-55-238-169T716 249q51-107 131-199Q970-93 1068-93q48 0 48 37 0 7-1 14t3 17 12 10q13 0 17-31 1-5 1-10 0-32-32-52t-77-21-75 14Q885-76 805 22T681 228q-55-32-91-35-67-87-165-169-53-45-115-72T191-76q-81 0-125 40T22 88q0 41 16 76 51 113 154 156 57 25 113 25t76-37q7-13 7-27t-4-19-11 7q-24 44-51 49-18 2-26 2-78 0-146-65-88-85-88-184Q62-37 184-51h8q44 0 113 39 112 64 239 220-23 21-23 62t30 77 84 37q15 0 28-3 50 84 97 181t47 113q0 2-6 2t-69-31-91-50-66-56-39-63q0-11 15-22t57-11q5-2 5-5t-27-8-44-5q-36 0-36 30 0 35 43 84t94 77q149 80 189 80zM673 249q-8 20-13 40-20-29-40-57 10 0 18 1t35 16zm-38 86q-12 5-26 5t-29-18-15-38 11-35q49 70 59 86z"/><glyph unicode="L" glyph-name="L" horiz-adv-x="658" d="M859 592q0-79-77-186-60-84-159-135t-184-51q-31 0-52 7-42-54-135-169 35-50 126-94t158-44 98 18q44 23 44 66 0 11-2 21t6 10 15-14 7-26q0-35-37-66-47-38-128-38T371-71 228 32Q148-48 76-48q-22 0-38 8Q3-20 3 36t46 138 74 87q18 0 41-41l63-122q53 70 111 153-82 37-82 107 0 58 47 94 26 19 55 19t45-31q3-6 1-7t-4-1q-20 20-43 20h-2q-29 0-50-31t-22-57v-6q0-52 72-89 12 17 38 56t42 62q199 292 331 292 93 0 93-87zm-89 70q-50 0-124-84-51-59-119-158T403 249q13-3 29-3 70 0 160 48t142 121q91 127 91 193 0 40-35 51-9 3-20 3zM202 65q-24 33-50 84t-34 62-12 10-4 0q-18-3-39-64T42 38t36-59q26 0 62 27t62 59z"/><glyph unicode="M" glyph-name="M" horiz-adv-x="1136" d="M423 41Q399 4 399-7t9-16q0-1-18-15-16-8-36-8t-29 4-6 15q14 45 105 180t122 192q67 121 67 193 0 30-10 51-20 41-95 41-117 0-242-101-100-81-153-171T60 196q0-102 90-104h8q115 0 178 83 24 33 24 56t-10 29q-1 1-1 4t6 3q26 0 26-34 0-21-20-57t-73-68-121-32-110 43-41 113q0 158 206 323 53 42 139 69t166 27 107-27 29-74q0-70-57-189-18-37-81-135l77 98q56 73 194 208 30 29 66 48t63 20q36 0 36-38 0-33-31-99t-64-126-39-78-10-30-4-12q3 5 66 76t186 179l160 132q19 16 34 16t24-25 10-40-48-65q-125-128-212-280T946-7q0-17 6-23t19-5 54 21 55 21q5-2 5-5 0-15-52-42t-79-27-33 9q-18 26-18 63 0 86 92 247 59 101 182 272-96-78-260-239T702 33q-26-47-63-47-17 0-17 12 0 4 20 36t91 150q172 299 172 360 0 16-11 16-16 0-47-27-111-93-236-243T423 41z"/><glyph unicode="N" glyph-name="N" horiz-adv-x="925" d="M402 12q-24-37-24-48t9-16q0-2-16-12t-46-11-29 15q0 26 98 172t130 203q68 122 68 193 0 28-11 52-17 36-82 36-119 0-253-109-102-84-157-174-50-85-50-152 0-96 89-98h8q118 0 179 83 24 33 24 56t-11 29q-1 1-1 4t6 3q26 0 26-34 0-21-20-57t-72-68-120-32T41 86 2 191q0 156 214 328 54 43 140 72t157 29 100-26 29-74q0-114-138-323 31 39 101 99 249 209 428 275 9 4 20 4 38 0 48-43 5-17-48-71-125-128-212-280T754-37q0-16 6-22t19-5 54 21 55 21q5-2 5-5 0-15-52-42t-79-27-33 9q-18 25-18 63 0 86 92 247 59 101 182 272-133-12-344-210Q473 126 402 12z"/><glyph unicode="O" glyph-name="O" horiz-adv-x="784" d="M812 356q0-125-128-239Q487-59 243-59q-27 0-42 1-80 4-128 52T24 120t41 168q52 115 203 224 174 124 360 124 100 0 152-39t52-97q0-36-28-89 8-27 8-55zm-21 85q10 24 10 53t-22 61q-43 60-152 60-151 0-285-93T133 286Q78 183 78 101 78-31 211-38q14-1 28-1 197 0 375 159 128 114 138 217-52-57-180-136l-8-2q-1 0-1 1 0 4 27 27l56 46q72 63 105 103-7 56-50 93t-100 55q-28 7-86 9t-59 4 2 4q46 15 88 15t98-13q105-25 147-102z"/><glyph unicode="P" glyph-name="P" horiz-adv-x="1057" d="M1196 447q0-51-51-112t-154-99-201-38-155 25Q509 38 471 0 363-108 213-108q-85 0-127 39T43 34q0 87 70 164 77 85 194 85 48 0 81-22t33-67q0-30-34-72t-42-42q-2 0-2 4t3 8q32 47 32 86t-24 61-61 22q-84 0-148-76T80 30q0-50 31-81t98-31q123 0 211 83 51 48 103 140l87 157q64 103 149 306h-18q-135 0-271-29t-206-85q-30-23-30-45t23-35 56-14 79 12 72 34q10 8 14 8 8 0 3-8-36-42-109-63-45-13-89-13t-72 19-28 53 36 68q68 66 243 98 124 22 285 22h27q22 19 40 19t18-14q0-3-1-7 155-11 251-52 114-48 114-125zm-47 10q0 63-102 103-89 35-223 42l-32-100q-38-94-146-262 10-5 34-11 40-7 62-7 76 0 175 31t165 92 67 112z"/><glyph unicode="Q" glyph-name="Q" horiz-adv-x="797" d="M97-82q-11 0-11 38 0 14 2 25-64 49-64 144 0 72 41 163 52 115 203 224 174 124 360 124 100 0 152-39t52-97q0-36-28-89 8-27 8-55 0-125-128-239Q570 15 443-27q203-146 274-146 16 0 29 8t13 20-7 22q-3 7-3 11 0 14 17-5t18-40-20-35-52-14q-104 0-331 161-62-14-139-14T118-37q-14-45-21-45zm694 523q10 24 10 53t-22 61q-43 60-152 60-151 0-285-93T133 286Q78 183 78 101q0-52 22-84 11 27 27 49 25 36 65 36t81-23q54-29 138-84 107 40 203 125 127 112 138 217-52-57-180-136l-8-2q-1 0-1 1 0 4 27 27l56 46q72 63 105 103-7 56-50 93t-100 55q-28 7-86 9t-59 4 2 4q46 15 88 15t98-13q105-25 147-102zM350-24Q235 46 193 46t-57-32l-10-24q34-27 85-28h20q58 0 119 14z"/><glyph unicode="R" glyph-name="R" horiz-adv-x="752" d="M572 270q-50 0-93 8 14-44 59-199 14-45 44-91 41-59 76-59 42 0 70 85 5 20 10 20t8-11 3-16q0-25-28-64-37-55-81-55t-81 44-72 160-36 149q0 5 1 8Q332 90 280 39 164-74 43-74q-85 0-85 64 0 32 20 70t49 68 51 29q4 0 4-2 0-5-25-25T9 74-14 7q0-53 71-53 133 0 366 312 13 17 22 24l-16 6q-13-5-21-5-21 0-21 17 0 23 31 30 4 1 7 1 18 0 42-18 88 98 90 100 73 75 98 75t26-22q0-10-4-19t-11-9q-6-2-6 6 0 4 6 12 1 14-9 14-32 0-155-170 30-2 50-2 232 0 290 120 12 26 12 48 0 44-40 76-64 52-208 52t-294-73q-182-89-182-209 0-39 49-39t104 36 74 71q7 13 13 13t4-8q-19-56-84-95t-137-40-71 45v7q15 131 160 222t351 92q191 0 271-66 48-40 48-94 0-23-11-50-31-73-127-108t-202-36z"/><glyph unicode="S" glyph-name="S" horiz-adv-x="748" d="M791 428q-37-15-63-15t-27 11q0 7 29 8t43 7q38 20 38 59 0 20-11 42-32 57-155 57-71 0-142-21t-119-66-48-83q0-58 115-85l118-22q71-13 106-36 46-28 46-80 0-21-7-45Q682 51 549-6 438-55 287-55q-43 0-75 4 32-18 84-31 4-1 4-4 0-9-21-9-41 0-102 49Q94-33 53 0 27 21 5 62t-22 74 13 55q30 53 76 53 35 0 41-59 14-114 19-130 15-49 51-83 42-9 91-9 108 0 212 43t150 122q19 31 19 55 0 47-83 73l-176 40q-54 13-86 43t-33 69q0 60 75 120 57 46 139 71t162 26 132-23q67-31 67-90t-61-84zM147-18Q89 46 73 157q-9 63-17 63t-15-4-14-20-7-39q0-77 54-132 27-28 73-43z"/><glyph unicode="T" glyph-name="T" horiz-adv-x="661" d="M28 67q0 108 64 214-74 47-74 139 0 111 98 197 110 97 284 97 80 0 172-23 21-5 179-77t227-73q46 0 69 26 12 13 12 28t-13 27q-7 10-7 13t5 3 19-17 14-41-31-45-80-22q-75 0-233 72t-198 81-93 8q-207 0-326-134-14-15-33-60t-19-88q0-58 41-90 52 76 123 121t144 45q90 0 90-70 0-84-98-182t-183-99q-54 0-54 46 0 16 8 28t21 9l-2-23q0-15 46-15 68 0 143 70t92 137q4 15 4 27 0 45-57 45t-119-44-116-116q4-2 31-8l60-2q44-2 44-10 0-14-42-14h-6q-61 0-100 15Q57 144 57 45q0-128 99-128 112 0 233 156l196 292q110 160 191 164l38-9q18-10 18-30t-10-20l-32 5q-69 0-177-149L414 48Q286-101 169-101q-80 0-110 43T28 67z"/><glyph unicode="U" glyph-name="U" horiz-adv-x="801" d="M345-19q-43 0-43 30 0 52 132 238t161 230q61 94 61 128 0 17-13 21-24 10-56 10-110 0-281-117-112-78-185-182T47 166q0-49 40-56 16-3 32-3 51 0 105 33 27 16 68 53l18 6q-19-36-79-73T106 89q-15 0-35 4t-38 28-19 65q0 157 296 369 60 43 142 74t149 32q34 0 65-13t32-43-35-87-111-159-128-192-53-124q0-17 14-17 27 0 101 56 176 134 414 435 38 48 61 48 9 0 9-9 0-4-3-10 1-3 1-6 0-21-24-57L826 316q-72-104-127-197T648 10l18 6q50 28 87 65 13 10 16 10l2-2q0-9-27-38-70-61-100-61T614 9t53 118 172 273q-20-24-63-71Q530 77 481 38q-73-57-136-57z"/><glyph unicode="V" glyph-name="V" horiz-adv-x="690" d="M290 286q14 0 14-33 0-50-49-93t-114-44q-41 0-79 20-81 44-81 153 0 77 42 151 58 101 166 160t212 59q75 0 123-33 54-37 54-110 0-93-90-291T398 0q0-8 5-5 26 17 238 271t296 315q74 55 123 82t102 28q14 0 21-1 27-2 27-28 0-13-9-13-1 0-14 4t-22 5q-140 0-377-253-89-95-216-256T421-25q-81-46-91-46-3 0-3 10 0 33 56 168 23 52 67 156l46 135q24 68 24 99 0 69-40 105t-115 36-161-53q-93-60-139-148T19 288t25-96q41-57 109-57 52 0 92 34t40 88q0 11-2 20t7 9z"/><glyph unicode="W" glyph-name="W" horiz-adv-x="1135" d="M633 27q0-67 67-67 90 0 217 130 115 116 175 236t61 184q0 10-2 20-22 0-45 23v-1q-15 12-15 24t10 21 26 8 22-12 17-23 9-14q6-9 18-9t29 12 25 12 10-6q0-11-19-21-10-8-24-9h-32q12-41 12-59 0-80-76-208T921 41Q800-61 702-61t-99 96q0 76 64 217l72 157-98-76q-46-38-93-83T382 62L266-80q-28-32-50-32-17 0-17 22t18 57l193 278q175 257 175 326 0 38-70 38-85 0-237-104-82-56-144-140T72 225t74-56q69 0 142 64 26 22 30 22t3-7q-11-38-81-72t-125-35q-14 0-19 1h-1q-80 17-80 79t69 149q122 154 314 229 99 38 163 38 79 0 79-52 0-108-272-469Q277-5 276-5q3 0 104 113t193 193q35 31 121 114 45 42 97 76 13 8 37 8t34-14q-92-114-160-255T633 27zm581 508h1-1z"/><glyph unicode="X" glyph-name="X" horiz-adv-x="640" d="M1006 644q-66 0-242-142-114-92-206-184-8-21-21-69-43-156-43-212 0-29 17-29 41 0 144 102 17 17 17 6 0-30-72-83-90-67-127-67-33 0-33 45t46 216l11 44Q276 77 110-13-6-76-73-76q-8 0-16 1-78 11-78 96t57 179q21 35 34 35 4 0 4-6t-7-17q-55-88-55-163 0-41 18-70 23-32 61-32 80 0 265 133 135 97 285 233l16 14q23 100 23 178t-36 102q-22 15-55 15t-64-10q-114-35-182-127t-69-170 58-77q32 0 79 29 12 9 12 10 3-3-7-13-40-40-105-40-39 0-62 19t-23 55q0 6 1 13 12 133 128 228t235 95q32 0 56-7 80-26 80-147 0-41-11-99 104 92 219 180t155 99 52 11 19-2q19-7 19-16t-25-9h-2z"/><glyph unicode="Y" glyph-name="Y" horiz-adv-x="882" d="M336-254q-38 0-74 27t-37 60q0 21 21 21 5 0 15-2 12-42 20-57 17-27 58-27 123 0 302 336l180 321Q628 219 548 139T437 40Q377 4 338 4q-57 0-57 67 0 80 68 165 5 6 42 51t88 109 84 121 34 82-14 31q-29 15-66 15-106 0-293-128-78-53-124-123T54 265t57-74q18-5 35-5 51 0 113 44 73 49 82 52-10-37-79-81-76-47-142-47-9 0-33 3t-49 37-24 80q0 136 199 278 58 42 153 76t153 34 89-18 31-59-56-126-177-233q-25-29-46-75t-21-74 21-28 65 31q122 87 243 211t179 208q41 59 87 59 16 0 16-10 0-2-2-8Q822 320 605-44q-64-105-136-157t-133-53z"/><glyph unicode="Z" glyph-name="Z" horiz-adv-x="739" d="M908 533q-5 0-107 16-169-96-387-246T60 26q153 17 311 31 18 1 52 1 125 0 197-24t72-64q0-24-29-53-38-35-52-35-5 0-5 8t11 19 12 20q0 31-93 57-97 28-182 28T157-2-21-19h-7q-16-14-20-14-2 0-2 3t6 14q-37 2-37 21 0 15 16 31t28 16q2 0 4-2 5-8 43-14 253 264 725 523l-30 6q-71 16-183 16t-195-30q-18-4-54-22-58-29-58-69 0-6 2-14t0-14q-4-6-13-6t-18 14-9 30 5 33q19 64 123 94 53 15 177 15t247-22q15-1 50-9l55 30q8 4 35 4t27-10q0-4-9-7-4-3-51-29 45-3 55-3t19 5 7 15 1 10q6 0 14-13t9-25q0-25-33-25z"/><glyph unicode="[" glyph-name="bracketleft" horiz-adv-x="585" d="M164 4l75 5q29 0 29-12 0-14-84-14Q23-17 23 19q0 119 129 367t228 315q26 17 109 17t84-21q0-4-1-13-4-1-14-1l-72 4q-44 0-60-10t-56-57q-81-96-182-282T87 60q0-56 77-56z"/><glyph unicode="\" glyph-name="backslash" horiz-adv-x="551" d="M54 698q24 0 251-302Q535 87 566 2q22-60 22-93t-17-33q-14 0-21 10-4 8 3 11t8 20-6 35q-32 84-206 318T39 660q-9 11-9 18t6 13 18 7z"/><glyph unicode="]" glyph-name="bracketright" horiz-adv-x="556" d="M432 697l-75-5q-29 0-29 12 0 14 84 14 161 0 161-36 0-120-129-367T216 0q-26-17-109-17T23 4q0 4 1 13 4 1 14 1l72-4q44 0 60 10t56 57q81 96 182 282t101 278q0 56-77 56z"/><glyph unicode="^" glyph-name="asciicircum" horiz-adv-x="370" d="M186 412Q86 328 75 328t-11 10 61 60q62 52 75 53l6-2q38-42 125-108l5-10-4-7q-23 2-77 37t-69 51z"/><glyph unicode="_" glyph-name="underscore" horiz-adv-x="806" d="M786-60Q445-60 25-73 8-73 8-49t17 24h740q25 0 28-28l-7-7z"/><glyph unicode="`" glyph-name="grave" horiz-adv-x="221" d="M169 312q4-3 4-7t-6-5-59 32-62 38-9 19 10 13q12 0 122-90z"/><glyph unicode="a" glyph-name="a" horiz-adv-x="412" d="M332 299l14 3q11 0 21-9t10-14-62-96-62-128q0-3 1-6 5-23 22-23 52 0 190 172 3 4 7 4t4-7-9-20Q340 4 273 4q-9 0-17 3-44 17-44 66 0 17 4 34l-62-60Q95-5 69-5T18 12Q-9 32-9 65q0 73 102 174t187 102q33 0 44-23 3-8 5-13t3-6zM33 53q0-36 25-36 58 0 158 127l106 146q-8 14-26 14-61 0-162-94T33 53z"/><glyph unicode="b" glyph-name="b" horiz-adv-x="365" d="M228 249q0 68 42 68 4 0 9-1 17-3 17-26t-8-58q-8-26-11-39 3-17 16-43t37-27 53 32q6 7 11 7t6-6-7-18q-31-37-65-37-49 0-79 72-31-71-88-122T48-1Q-5-1-5 79q0 63 117 232t180 169q13 0 23-8t11-19q0 1-14-15t-79-86-127-154T44 68q0-12 6-26t22-14q44 0 103 68 49 60 60 101-7 21-7 52z"/><glyph unicode="c" glyph-name="c" horiz-adv-x="283" d="M76-13q-11 0-20 3Q-8 8-8 62q0 70 88 162t158 92q23 0 37-12t15-34-13-45-39-24-26 16q0 11 13 33t14 24-3 2q-28-3-76-40t-67-62l-39-57q-10-16-14-38t-5-33 12-25T83 7q50 0 124 58t114 112q5 6 12 6t7-4-5-10Q280 96 204 42T76-13z"/><glyph unicode="d" glyph-name="d" horiz-adv-x="467" d="M328 303q112 182 156 182 7 0 19-4t13-14q0-5-5-13-80-98-119-147Q274 158 262 93q-3-14-3-28 0-45 37-45 74 0 193 137 10 10 17 11t7-3-6-12Q391 14 301-2q-5-1-14-1-31 0-46 21t-16 47q0 28 11 62l-81-81Q100-5 69-5T16 12Q-9 31-9 65q0 73 102 174t187 102q28 0 39-15 4-5 9-23zM33 53q0-36 25-36 43 0 143 118 18 21 120 157-7 12-24 12-62 0-163-94T33 53z"/><glyph unicode="e" glyph-name="e" horiz-adv-x="257" d="M51-13q-11 0-20 3-64 18-64 72 0 70 88 162t158 92q23 0 37-12t15-31q0-56-84-107T43 115q-8 0-14 2-15-27-15-57Q14 8 63 8t129 67q61 49 104 104 9 12 15 12t7-6-8-17Q256 97 180 42T51-13zm189 288q0 12-25 12t-73-39q-63-52-98-109 6-2 13-2 38 0 101 40t80 89q2 5 2 9z"/><glyph unicode="f" glyph-name="f" horiz-adv-x="242" d="M408 489q0-31-18-31-5 0-10 8-9 16-30 16-46 0-86-66-8-13-50-94h12q109 0 145 3 4-1 4-4 0-8-71-22-67-11-110-19-31-64-75-152Q29-40 0-81q-87-124-170-124-29 0-50 24t-23 55q3 12 9 12 3 0 4-7 6-26 20-40t29-14q85 0 155 105Q14-10 83 146l54 130q-100 1-100 24 0 10 9 17t17 7l94-2q98 218 180 218 31 0 63-30 8-8 8-21z"/><glyph unicode="g" glyph-name="g" horiz-adv-x="370" d="M334 305l14 3q13 0 20-8t8-12-1-10-29-51q-35-61-58-103Q207-27 164-83 72-205-11-205q-29 0-50 24t-23 55q3 12 9 12 3 0 5-7 5-26 19-40t28-14q57 0 122 75 43 50 95 146l50 99-75-76Q97 0 71 0T20 18Q-7 38-7 71q0 73 102 174t187 101q34 0 44-22 3-8 5-13t3-6zM35 59q0-36 25-36 58 0 158 127l106 146q-6 14-25 14-62 0-163-95T35 59z"/><glyph unicode="h" glyph-name="h" horiz-adv-x="376" d="M237 4q-59 0-59 69 0 39 27 86t68 112Q145 207 41 82-17-5-27-5q-29 0-29 17 0 9 12 32 97 173 147 253 119 191 168 207 2 1 4 1 13 0 18-21-3-21-104-152Q84 199 70 158q37 27 129 91 99 69 131 69t32-25v-5q0-1-70-95T223 56q0-23 17-23 54 2 162 130 9 9 13 9t5-6q0-20-99-108-62-54-84-54z"/><glyph unicode="i" glyph-name="i" horiz-adv-x="226" d="M232 408l13-9 14-23-12-22-28-10-27 11-13 25q0 28 38 28 15 0 28-9zM36-11q-51 0-51 66 0 54 59 149t95 97q10 0 22-8t13-16q-5-7-12-15t-15-19-22-28-27-36Q23 82 23 46T48 9q21 0 57 23 84 52 133 114 18 23 24 23t7-8-23-32-36-38-19-18-18-17-21-18-20-15-23-14T86-2q-21-9-50-9z"/><glyph unicode="j" glyph-name="j" horiz-adv-x="201" d="M219 410l13-10 14-22-12-22-28-10-27 10-13 25q0 29 38 29 15 0 28-10zm-34-138q0-6-79-142Q29-17-13-75q-91-130-171-130-30 0-55 19t-26 39 9 20q1 0 20-25t46-26q80 0 182 181 63 113 86 183-12-14-41-41T1 118t-7 3q0 9 16 23t43 53 32 43l33 35q20 19 43 19t24-22z"/><glyph unicode="k" glyph-name="k" horiz-adv-x="394" d="M205-12q-79 0-134 125Q57 92 8-5-28 9-28 33q0 43 129 236t177 227q4 3 16 3 31 0 31-16 0-8-69-90t-78-99q91 47 145 47 31 0 53-25 21-21 21-43v-6q-8-57-80-94-58-31-108-31t-70 13q-6 1-9-3t-2-10q28-124 93-124 34 0 87 38t112 107q7 7 12 7t6-5-7-16Q377 83 329 45q-73-57-124-57zm144 306q0 8-9 16t-19 8q-54 0-129-45T99 171q9 0 48-3 45 0 118 37 84 42 84 89z"/><glyph unicode="l" glyph-name="l" horiz-adv-x="243" d="M39 20h33l85 35 101 95q12 16 19 16t7-6q0-6-41-52Q143-2 76-2 43-2 20 13T-3 61t17 76q29 68 93 171 117 190 166 190 10 0 20-7t12-17q-23-31-88-119t-91-126-37-58-19-29-14-28Q39 80 39 50z"/><glyph unicode="m" glyph-name="m" horiz-adv-x="631" d="M478 12q-68 0-68 63 0 36 32 98t67 106q-62-30-143-108T253 6q-5-8-17-8-24 0-24 27 10 55 45 126 11 23 65 134-78-51-132-109T89 58 36-1Q23-1 14 11T4 35q0 18 52 132l-60-63q-22-22-27-22t-6 6 8 15q37 37 66 74t96 132q11 15 31 15t20-19q0-7-53-97T72 94q41 45 123 121 123 114 162 114 12 0 22-7t10-15-39-76q-38-69-42-82 111 93 111 94 94 73 135 73 12 0 22-7t11-18q0-2-65-84T449 71q-2-18 7-27t32-9 69 32 93 88q18 20 24 20t7-5q0-7-9-16-49-59-105-100t-89-42z"/><glyph unicode="n" glyph-name="n" horiz-adv-x="403" d="M161 316q27 0 27-21 0-6-3-12Q95 158 77 94q233 233 283 233 5 1 9 1 28 0 28-25 0-5-2-10t-40-54q-44-52-74-100t-31-80 14-32q44 0 153 121 2 2 7 9 15 18 18 18t3-10-14-26Q307-2 255-2q-49 0-49 54t40 124l64 104q-68-50-121-109T93 55 42-1Q27-1 19 11t-9 31 13 50 33 75l-60-63q-22-22-27-22t-6 6 8 15q37 37 64 71 26 34 107 130 9 12 19 12z"/><glyph unicode="o" glyph-name="o" horiz-adv-x="281" d="M261 212q0-35-67-117Q115-2 59-2H43Q17-2 2 25q-12 19-12 42 0 60 87 168t142 109q51 0 51-54 0-14-5-36 1-3 19-3t55 19q-1-17-79-49 1-4 1-9zm-65 52q-34 0-96-80T37 66t24-38q43 0 109 78t66 112q-16 9-40 46z"/><glyph unicode="p" glyph-name="p" horiz-adv-x="377" d="M377 226q0-81-92-153T124 0Q79 0 59 6T13 42Q-4 28-33-29t-29-99q0-19 19-50 2-5-3-8t-7-4-5 1q-42 23-42 89T10 130t153 178q10 2 13 2 17 0 17-37 10 10 41 19 38 10 54 10 36 0 62-20t27-56zm-51 10q0 38-45 38t-82-19q-17-8-94-88T28 64q0-18 27-27t56-9q55 0 135 62t80 146z"/><glyph unicode="q" glyph-name="q" horiz-adv-x="332" d="M123 48Q59 4 21 4q-49 0-49 54 0 42 53 104 47 52 93 78 110 61 179 61 22 0 27-17v-32q17-13 17-16t-3-8l-79-75Q184 76 156 12q6 2 33 2t42-23 15-47q0-48-42-113-46-73-100-73-52 0-52 77 0 47 25 106l46 107zm150 203q-51 0-153-66T3 49q-1-3-1-6 0-19 24-19 50 0 134 87l126 134q-2 6-13 6zM146-9q-19-30-41-86t-22-76 8-35 22-16q37 0 65 64t28 96-14 42-46 11z"/><glyph unicode="r" glyph-name="r" horiz-adv-x="394" d="M204-5q-75 0-75 83 0 42 22 92t48 84q-5-1-13-1-24 0-40 34l-74-96q-62-77-72-77-5 0-5 4 0 10 17 29 87 101 123 171 23 87 58 87 23 0 23-20t-25-51l-24-32q0-21 31-21 18 0 40 13l26 16q2 1 10 1t17-10 6-18l-69-87q-64-82-64-129t44-48q46 0 113 49 40 29 73 65 31 36 34 36 7 0 7-7t-9-18l-32-36q-27-28-60-54Q255-5 204-5z"/><glyph unicode="s" glyph-name="s" horiz-adv-x="359" d="M184 15Q155-2 113-2T48 26 9 115Q-9 97-16 97q-5 0-5 7t5 12q33 41 112 118l126 118q54 51 64 51 32 0 32-24 0-12-9-23t-14-18-10-13q-18-31-36-128T220 62q83 1 171 108 10 10 15 10t5-6-9-18q-58-68-108-95-30-15-78-25l-32-21zM49 126q0-34 22-55t51-22 43 11q20 11 39 92t24 143l4 34q-55-41-117-106t-65-86q-1-6-1-11z"/><glyph unicode="t" glyph-name="t" horiz-adv-x="297" d="M261 322l144 2q3-2 3-3 0-9-124-25t-135-19q-19-17-70-101T28 52q0-37 51-37 24 0 63 15t60 28q56 35 120 103 14 14 19 14 3 0 3-6t-15-24Q277 81 212 42 134-6 63-6 32-6 13 7T-7 62t36 112 55 107q-14-3-24-3-29 0-29 23 0 17 24 24 3 0 9 1h58q18 23 41 53 28 36 38 36t25-8 15-19-48-65q26-1 68-1z"/><glyph unicode="u" glyph-name="u" horiz-adv-x="425" d="M280-6q-5-1-21-1T226 6t-17 33 7 46 11 38Q112-11 47-11 6-11 2 40v7q0 43 52 116-29-26-59-60-4-4-10-4-4 0-4 5t9 17l138 162q26 30 53 30t27-18q0-7-6-13-40-37-100-123T41 32q0-18 12-18 42 0 122 83 28 28 104 123t100 96q36 0 36-28 0-10-42-58-57-69-87-112t-30-71 15-27q7 0 16 4 69 30 165 140 6 7 12 7t6-6-7-15q-43-50-101-100T280-6z"/><glyph unicode="v" glyph-name="v" horiz-adv-x="301" d="M271 393q30 0 51-20t21-56q0-79-131-198Q101 19 33-3 22-3 4 9t-18 22q0 22 48 149t66 142q4 4 13 4t19-9 11-23q0-1-49-116T47 41q43 13 153 105t111 165q0 44-44 64-7 3-7 9 0 9 11 9z"/><glyph unicode="w" glyph-name="w" horiz-adv-x="449" d="M402 314q0 6 6 6 18 0 28-22 12-19 12-66 0-72-63-147T249 9q-35 0-56 34t-22 70 16 88q-29-29-85-99T26-2Q16-2-1 9t-18 21q0 24 61 158t91 135q11 0 20-10t9-16-54-103T54 76q95 115 101 122 97 112 127 112 11 0 21-9t11-17-28-45-47-72-20-72q0-63 42-63h13q54 0 98 82t45 133q0 40-13 62-2 2-2 5z"/><glyph unicode="x" glyph-name="x" horiz-adv-x="427" d="M362 44q-72-60-119-60t-63 69q-5 28-7 84Q51 7-10-98q-3-4-8-4-12 0-12 11 0 3 2 5Q65 61 173 172q4 137 5 154-23-5-98-116-37-56-65-86t-33-34-11-5-6 5 32 40 85 116 76 102 43 21 29-5 7-19-4-24-3-23q-6-47-7-77 49 47 221 193 2 2 7 2t13-8 8-17-8-17q-32-26-111-83T221 185q-1-21-1-57t9-66q12-39 44-39 57 0 176 137 10 10 15 10t5-6-8-16q-62-73-99-104z"/><glyph unicode="y" glyph-name="y" horiz-adv-x="370" d="M-56-116q48-60 83-60 57 0 123 91 48 67 94 169l38 92L135 61Q67 8 26 8 4 8-9 23t-13 34q0 43 74 141t108 99 34-23q0-9-88-103T17 43q0-13 17-13 32 0 128 75t146 124q11 13 31 39 19 22 42 22t23-22q0-4-45-71t-47-71q-31-60-95-175-97-156-194-156-32 0-56 27t-23 62z"/><glyph unicode="z" glyph-name="z" horiz-adv-x="386" d="M67 41Q27 13 10 13q-23 0-23 25 0 9 6 22T5 73q9 0 4-15-3-15 9-15t29 12L9 84q-2 2-2 7t10 14 15 10 49-34q124 140 182 184-79 24-117 24-11 0-21-1t-21-12-12-24 11-21 11-14-7-5-25 20q-16 20-16 41 0 35 51 46 27 5 55 5t138-36q14 8 30 8 42 0 42-25 0-10-13-18t-31-9-33 7q-95-59-204-186l36-28Q180 9 237 9t84 18 27 46q0 13-5 24t9 12q5 0 10-11t5-28q0-40-38-66t-98-26q-66 0-109 25-17 9-55 38z"/><glyph unicode="{" glyph-name="braceleft" horiz-adv-x="323" d="M153 174q0-33-16-103T120-42t28-54l65-12 9-8q-14-6-19-6-56 0-84 14-39 20-39 74Q80 1 98 71t18 108q0 78-107 80l11 16q71 8 98 29 34 25 47 89l22 123q15 62 53 93t119 31h7q6 0 11-9l-13-5q-77 0-108-43-21-29-35-109-4-26-18-83-33-106-116-126 66-24 66-91z"/><glyph unicode="|" glyph-name="bar" horiz-adv-x="219" d="M52-102q-1 0-1 1t4 19Q70-19 86 59q33 192 33 381 0 78-6 118-12 50-12 59t17 9q40 0 40-88t-28-339T76-85q-12-17-24-17z"/><glyph unicode="}" glyph-name="braceright" horiz-adv-x="425" d="M27-120h-1q-6 0-11 9 11 5 51 9 68 4 96 72l39 122q25 79 58 109 40 39 98 56-73 18-73 79 0 42 25 116t25 113-27 48l-59 9-8 7 14 8q52 0 78-9 44-15 44-59t-27-122-28-114 30-54q25-12 70-16l-13-17q-87-2-125-53-22-31-48-127-22-89-54-127-50-59-154-59z"/><glyph unicode="~" glyph-name="asciitilde" horiz-adv-x="303" d="M269 447q0-15-39-42-14-9-30-9t-48 13-49 14-33-13-21-13q-1 1-1 3 0 14 42 40 16 10 34 10t49-10 53-11 37 22q6 0 6-4z"/><glyph glyph-name="nbspace" horiz-adv-x="198"/><glyph unicode="¡" glyph-name="exclamdown" horiz-adv-x="295" d="M252 195q0-29-38-29-15 0-28 10t-14 22 13 22 27 10 27-10 13-25zM-9-215q-12 0-26 4t-15 13q0 3 4 7Q-2-145 76-41q81 104 92 130t22 26q5 0 5-7 0-60-87-191T-9-215z"/><glyph unicode="¢" glyph-name="cent" horiz-adv-x="295" d="M183 268l6 23q0 17-26 17t-49-38-23-69q0-51 45-51 55 0 118 78 7 10 12 10t5-3q0-12-34-43t-58-47-57-16q-6 0-16 2Q72 86 38-40q-2-2-3-2-10 0-10 7 0 4 5 29 19 99 54 146-24 16-24 56t45 89 84 49h7q9 19 44 79t43 65 16 6 8-7q0-3-16-25t-78-125q5-5 5-13t-12-29-20-21q-3 0-3 4z"/><glyph unicode="£" glyph-name="sterling" horiz-adv-x="881" d="M818 118q57-42 57-77t-17-60-46-35q-114-45-281 4-89 26-175 71-77-49-142-49T94 14 38 117q0 37 43 37 61 0 275-108 68 83 132 270H327q-12 0-12 8 0 23 24 23h160q79 236 150 318 59 66 127 66 38 0 62-24t24-65q0-98-109-150-7-4-12-4t-6 8 10 15 19 15 14 12q53 49 53 115 0 23-14 35t-35 12-44-14-44-43q-27-36-58-89t-94-207h172q8 0 8-7 0-24-29-24H530q-45-109-64-148-46-95-86-132 53-33 136-52 81-22 144-22t113 18q69 22 69 74 0 20-18 38t-19 24 4 6 9-4zM324 28q-26 20-103 50t-97 31-21-8q0-41 36-74 37-30 89-30t96 31z"/><glyph unicode="¤" glyph-name="currency" horiz-adv-x="518" d="M354 508q29-21 29-60t-22-70-58-48q48-79 63-96h-33q-4 13-48 88-29-10-64-10t-58 11l-82-90H49l102 96q-35 22-35 65 0 69 67 109l-53 81 29 9q4-18 39-82 39 17 78 17t66-12q43 42 72 75l23-9q-2-2-16-14-36-31-67-60zm-71-167l31 28 31 63q0 71-72 71-52 0-85-26t-33-62 20-54 64-20z"/><glyph unicode="¥" glyph-name="yen" horiz-adv-x="549" d="M313 308q129 231 129 295 0 46-52 46t-138-60-121-109q-9-13-13 1-1 5-1 16t14 29q45 57 122 101t139 44 82-27q10-14 10-37 0-82-103-251l-28-48h6q94 100 243 217 189 154 299 154 30 0 44-10t14-19-2-14-3-5l-7 17q-9 16-31 16-60 0-232-124T408 309l138 1q-3-7-8-9t-22-6-31-5-47-5-58-8l-27-29q-2-3-18-26t-23-34l172 5q1-1 0-5t-28-10q-65-17-162-21-85-144-85-181 0-14 11-14 17 0 73 40 5 0 4-6-4-15-47-36t-60-22q-36 0-36 38 0 49 70 179l-77 1q-44 0-44 7 0 25 31 25h106l55 86H188q-22 1-20 10 6 24 30 24h115z"/><glyph unicode="¦" glyph-name="brokenbar" horiz-adv-x="219" d="M109 444q0 97-4 132t-4 40q0 10 17 10 40 0 40-91t-5-213l-44 2v120zm1-382l-1 215 42 1Q138-13 125-64q-7-27-16-27t-9 12 5 53 5 88z"/><glyph unicode="§" glyph-name="section" horiz-adv-x="570" d="M159 330q5-49 31-76 29-28 54-40t38-18q34-15 70-27 55-22 88-45 54 18 92 56t39 78-34 65-77 39-95 40-78 59q-54-20-91-54t-37-77zM5-46q0-73 113-73 101 0 201 45 63 25 96 73 11 16 11 29 0 41-45 71-24 15-76 36t-89 37-67 50-31 85 43 101 112 78q-11 24-11 48 0 53 51 104t128 84q85 36 163 36 48 0 60-20t12-39-2-31-14-31-23-20q-7 0-3 13 5 34 5 40 0 51-73 51-44 0-104-19t-109-58-50-82q5-55 41-87t81-50 91-33q107-36 107-99 0-53-47-105t-117-82q21-21 21-42t-10-44-37-46q-51-45-107-70-112-54-215-54-118 0-137 81-2 9-2 18 0 42 44 81 40 38 97 61 8 5 14 5t10-4q0-5-36-23T38 21Q5-11 5-46z"/><glyph unicode="¨" glyph-name="dieresis" horiz-adv-x="261" d="M231 428q-1 0-14-18l-16-40q-12-27-27-27-7 0-14 10t-7 22 29 33q30 21 46 21l3-1zM53 343q-7 0-14 10t-7 22 29 33q30 21 46 21 1 0 3-1-1 0-14-18l-16-40q-12-27-27-27zm58 84q0 1-1 1h1v-1zm121 1v-1l-1 1h1z"/><glyph unicode="©" glyph-name="copyright" horiz-adv-x="638" d="M581 364q0-116-122-225T217 29q-71 0-123 42T41 185q0 118 124 227t245 110q71 0 121-44t50-114zm-38-8q0 64-40 105t-103 41q-112 0-217-103T77 184q0-61 48-98 43-36 106-36 106 0 209 100t103 206zm-72 54q0-30-18-32l-5 4q3 27 5 25-2 34-36 34-78 0-165-93t-87-173q0-48 48-48t125 42 75 45q3 0 3-3 0-34-80-65t-118-31-60 15q-27 16-27 49 0 92 98 181t193 90q49 0 49-40z"/><glyph unicode="ª" glyph-name="ordfeminine" horiz-adv-x="240" d="M332 539l14 3q11 0 21-9t10-14-62-96-62-128q0-3 1-6 5-23 22-23 52 0 190 172 3 4 7 4t4-7-9-20Q340 244 273 244q-9 0-17 3-44 17-44 66 0 17 4 34l-62-60q-59-52-85-52t-51 17q-27 20-27 53 0 73 102 174t187 102q33 0 44-23 3-8 5-13t3-6zM33 293q0-36 25-36 58 0 158 127l106 146q-8 14-26 14-61 0-162-94T33 293z"/><glyph unicode="«" glyph-name="guillemotleft" horiz-adv-x="420" d="M270 283q98-124 98-135t-9-12q-2 0-10 4-25 33-56 59l-65 51q-3 2-3 9t50 78 64 88 22 17 8-6q0-15-99-153zm-140 0q97-122 97-134t-8-13q-2 0-10 4-23 31-57 59l-64 51q-3 2-3 6 0 12 51 83t63 87 21 16 9-6q0-15-99-153z"/><glyph unicode="¬" glyph-name="logicalnot" horiz-adv-x="259" d="M38 22q0-38 37-45 3-1 3-2 0-7-22-7-32 0-45 39-8 26-8 52 0 61 159 287t191 226q41 0 41-17 0-3-4-7-109-119-230-291T38 22z"/><glyph unicode="­" glyph-name="uni00AD" horiz-adv-x="297" d="M105 260l97-1q58 0 83 3 1-1 1-3 0-15-79-29-43-6-80-12t-48-7-35 4-25 20q0 10 8 17t15 7 12 1h51z"/><glyph unicode="®" glyph-name="registered" horiz-adv-x="638" d="M581 364q0-116-122-225T217 29q-71 0-123 42T41 185q0 118 124 227t245 110q71 0 121-44t50-114zm-38-8q0 64-40 105t-103 41q-110 0-214-98 90 35 169 35 48 0 84-15 50-20 50-61 0-50-71-79-51-21-114-23 13-47 36-85 31-51 68-53 135 108 135 233zm-79 14q0 57-113 57-38 0-97-17t-98-38q-79-94-79-188 0-61 48-98 43-36 113-36t151 58q-37 9-69 58t-46 98q-9 0-12 3l11 4 7 5 9-3q175 24 175 97zM150 76q-11 0-11 40t80 156q65 97 117 149l22-11q-3-5-55-71t-78-106q-63-92-71-146-2-11-4-11z"/><glyph unicode="¯" glyph-name="overscore" horiz-adv-x="500" d="M220 616q16 8 98 8t107-12q3-2 3-3 0-5-6-5-31 0-91-6t-90-6q-5 0-12 9t-9 15z"/><glyph unicode="°" glyph-name="degree" horiz-adv-x="283" d="M237 442v-36l-25-61-61-25-61 25-25 61 25 61 61 25 61-25zm-22-62v26l-19 45-45 19-45-19-19-45 19-45 45-19 45 19z"/><glyph unicode="±" glyph-name="plusminus" horiz-adv-x="438" d="M219 290l-139-5q-6 0-12 7t-7 14l5 5q41 4 88 4t65 0l-6 138q0 6 7 12t15 6l5-5q4-40 4-87t0-64q80-2 154-7 6-3 6-6v-4l-9-6q-78 0-151-1-1-134-5-143t-10-10q-10 0-10 100v52zM112 89q16 8 98 8t107-12q3-1 3-3 0-5-6-5-31 0-91-6t-90-6q-5 0-12 9t-9 15z"/><glyph unicode="²" glyph-name="twosuperior" horiz-adv-x="455" d="M432 702q-4-49-56-103-24-25-85-73T118 419q29-3 94-25t97-22 54 10 24 31q0 24-37 37-4 3-4 5 0 8 10 5 50-15 50-48 0-28-30-45t-64-17-86 17l-83 30q-29 8-45 8-68-29-83-29T0 387q0 13 15 23 24 17 65 17 11 0 23-1 145 89 184 120t63 60q29 34 33 78 0 33-40 33t-96-26-90-55q-4-2-8-2t-4 6 4 8q43 37 111 67t120 30 52-43z"/><glyph unicode="³" glyph-name="threesuperior" horiz-adv-x="476" d="M65 475l-3-21q0-52 72-65 19-3 37-3 53 0 107 25 84 39 114 112 4 9 4 21 0 23-24 34t-60 11-50-5-21-6q-11 0-11 10 0 7 5 12t13 6q51 0 96 17 58 22 65 65 1 3 1 7 0 26-33 26t-76-17-55-25-15-8-4 12 12 16q13 4 29 19t21 16q3-2 3-5t-3-7q-1 0-5-4 65 27 107 27 59 0 57-54-3-52-108-85 91-10 91-64 0-7-3-16-18-71-106-116-79-38-169-38-59 0-96 19t-38 53q0 18 13 42t58 44q38 15 55 15t18-4q0-6-14-6t-44-18q-32-21-40-42z"/><glyph unicode="´" glyph-name="acute" horiz-adv-x="221" d="M62 259h-7l-7 5 4 8 105 81q11 9 17 9 9 0 9-12t-8-20q-9-7-61-39z"/><glyph unicode="µ" glyph-name="mu" horiz-adv-x="425" d="M9 11q-50-87-50-139 0-19 19-50 2-5-3-8t-7-4-5 1q-42 23-42 89T34 134l13 20-45-41q-6-6-11-6t-5 5 10 16l132 155q27 30 53 30t27-18q0-7-13-19t-39-43q-8-12-26-35-19-25-22-30Q41 73 41 32q0-18 12-18 19 0 68 38l54 45q16 12 102 122 78 97 102 97 36 0 36-28 0-10-42-58-57-69-87-112t-30-71 15-27q7 0 16 4 72 32 165 138 6 7 12 7t6-5q0-20-101-109-65-56-89-61-5-1-21-1T226 6t-17 33 7 46 11 38l-88-88Q87-11 53-11T9 11z"/><glyph unicode="¶" glyph-name="paragraph" horiz-adv-x="548" d="M361 606l108 4q26 0 39-4 40 42 85 42 26 0 32-13-2-2-19-5t-26-9q-53-31-127-195L331 132Q250-59 204-59q-6 0-6 4 2 5 14 16 54 51 120 247 36 111 67 200 46 120 99 184h-10q-70 0-158-186-38-78-101-254Q191 48 126-47 38-177-36-177q-14 0-16 9 3 6 10 6 88 0 178 183 30 63 104 264Q86 298 86 398q0 86 92 147t183 61z"/><glyph unicode="·" glyph-name="middot" horiz-adv-x="226" d="M141 347l13-10 14-22-12-22-28-10-27 10-13 25q0 29 38 29 15 0 28-10z"/><glyph unicode="¸" glyph-name="cedilla" horiz-adv-x="224" d="M173-181q0-47-48-73T24-280q-9 0-9 11 0 5 9 8 48 8 72 11 35 11 35 58 0 13-26 50T79-85q0 35 19 61t51 26q11 0 12-7-21-4-33-21t-13-42q0-11 29-48t29-65z"/><glyph unicode="¹" glyph-name="onesuperior" horiz-adv-x="349" d="M181 418q6 0 6-6 0-9-9-9-43 0-77-11t-62-23-31-12-6 4-3 13 10 12 56 20l151 275q-31-20-84-40-9-3-9 6 0 5 5 8 40 15 114 72l3 6q7 11 26 11t19-9q0-2-195-324 38 7 86 7z"/><glyph unicode="º" glyph-name="ordmasculine" horiz-adv-x="191" d="M261 446q0-35-67-117-79-97-135-97H43q-26 0-41 27-12 19-12 42 0 60 87 168t142 109q51 0 51-54 0-14-5-36 1-3 19-3t55 19q-1-17-79-49 1-4 1-9zm-65 52q-34 0-96-80T37 300t24-38q43 0 109 78t66 112q-16 9-40 46z"/><glyph unicode="»" glyph-name="guillemotright" horiz-adv-x="420" d="M340 288q-98 125-98 136t9 11q2 0 10-4 28-39 121-110 3-1 3-8t-50-79-64-88-22-17-8 6q0 15 99 153zm-156 0Q86 413 86 424t9 11q2 0 10-4 28-39 121-110 3-1 3-8t-50-79-64-88-22-17-8 6q0 15 99 153z"/><glyph unicode="¼" glyph-name="onequarter" horiz-adv-x="797" d="M512-69q-17 0-17 46t26 115q-47 13-81 13T334 75q-7-2-12 3t-5 18 13 17 34 9q32 17 98 65t85 59q122 76 136 105l6 8q3 4 10 4 20 0 20-11 0-2-1-2L613 198q-35-52-60-96 44-14 65-14t36 10q17 15 17 29t-2 21 4 7 10-6q11-19 11-37 0-41-73-41-31 0-78 15-28-54-28-97 0-20 3-31t4-16q0-11-10-11zM181 418q6 0 6-6 0-9-9-9-43 0-77-11t-90-34q-5-2-8 3t-4 13 10 12 56 20l151 275q-31-20-84-40-9-3-9 6 0 5 5 8 40 15 114 72l3 6q7 11 26 11t19-9q0-2-195-324 38 7 86 7zm29-280q-4-14-4-22t5-10 2-8-13-5-10 20 16 63 154 229q137 181 151 181 6 0 12-5t-3-18q-82-94-185-232T210 138zm196-10q30 3 51 3t73-20q24 55 113 182-40-24-124-84t-113-81z"/><glyph unicode="½" glyph-name="onehalf" horiz-adv-x="803" d="M732 323q-4-49-56-103-24-25-85-73T418 40q28-3 94-25t97-22 54 10 24 31q0 24-37 37-4 3-4 5 0 8 10 5 50-15 50-48 0-28-30-45t-64-17-86 17l-83 30q-29 8-45 8-68-29-83-29T300 9t15 23q24 16 65 16 11 0 23-1 145 89 184 120t63 59q29 35 33 79 0 33-40 33t-96-26-90-55q-4-2-8-2t-4 6 4 8q43 37 111 67t120 30 52-43zm-551 95q6 0 6-6 0-9-9-9-43 0-77-11t-90-34q-5-2-8 3t-4 13 10 12 56 20l151 275q-31-20-84-40-9-3-9 6 0 5 5 8 40 15 114 72l3 6q7 11 26 11t19-9q0-2-195-324 38 7 86 7zm330 168q6 0 10-4t4-8-5-11q-82-94-186-233-128-171-128-211 0-11 5-13t2-8-13-5-10 20 16 63 154 229q137 181 151 181z"/><glyph unicode="¾" glyph-name="threequarters" horiz-adv-x="914" d="M65 473l-3-21q0-52 72-65 19-3 37-3 53 0 107 25 84 39 114 112 4 9 4 21 0 23-24 34t-60 11-50-5-21-6q-11 0-11 10 0 7 5 12t13 6q51 0 96 17 58 22 65 65 1 3 1 7 0 26-33 26t-76-17-55-25-15-8-4 12 12 16q13 4 29 19t21 16q3-2 3-5t-3-7q-1 0-5-4 65 27 107 27 59 0 57-54-3-52-108-85 91-10 91-64 0-7-3-16-18-71-106-116-79-38-169-38-59 0-96 19t-38 53q0 18 13 42t58 44q38 15 55 15t18-4q0-6-14-6t-44-18q-32-21-40-42zm270-335q-4-14-4-22t4-10 2-8-12-5-10 20 16 63 154 229q137 181 151 181 6 0 12-5t-3-18q-82-94-185-232T335 138zM637-69q-17 0-17 46t26 115q-47 13-81 13T459 75q-7-2-12 3t-5 18 13 17 34 9q32 17 98 65t85 59q122 76 136 105l6 8q3 4 10 4 20 0 20-11 0-2-1-2L738 198q-35-52-60-96 44-14 65-14t36 10q17 15 17 29t-2 21 4 7 10-6q11-19 11-37 0-41-73-41-32 0-78 15-28-54-28-97 0-20 3-31t4-16q0-11-10-11zM531 128q30 3 51 3t73-20q24 55 113 182-40-24-124-84t-113-81z"/><glyph unicode="¿" glyph-name="questiondown" horiz-adv-x="401" d="M341 253q0-29-39-29-14 0-27 10t-14 22 12 22 28 10 27-10 13-25zM157-206Q-8-206-8-111-8-50 45-8 58 2 165 64q70 40 96 89 9 17 15 17t7-9-2-15q-25-52-88-93Q103-3 84-21 41-60 41-93t36-52 91-20 100 26 53 76q2 13-10 24t-36 12-52-30q-7-7-9 0-3 8 4 15 33 34 64 34t47-15 16-37v-5q-6-67-65-104t-123-37z"/><glyph unicode="À" glyph-name="Agrave" horiz-adv-x="1020" d="M946 286l97 2q36 0 36-5 0-13-146-23-93-182-93-248 0-46 29-46 11 0 27 13t20 14 4-5q-5-18-30-30t-43-12-28 2q-24 9-24 58 0 101 77 257l-120-3Q618 129 483 30 281-117 167-117q-7 0-14 1Q-1-103-1 42q0 86 54 182 72 128 197 218t224 91 99-73q0-49-30-109t-61-76q-3-1-6-1t-4 2l33 54q34 53 34 93t-17 64-56 25q-78 0-186-87T115 211 58 13Q58-94 167-94q104 0 282 134 79 59 257 223-35-2-65-7-64-12-60 4 4 37 38 37 66-8 111-8 86 79 257 259 115 121 140 121 11 0 11-17t-9-53-20-44q-23-16-43-43t-57-103-63-123zm80 244L770 290h59q21-1 52-1 29 57 145 241zm148 205q4-3 4-7t-6-5-59 32-62 38-9 19 10 13q12 0 122-90z"/><glyph unicode="Á" glyph-name="Aacute" horiz-adv-x="1020" d="M946 286l97 2q36 0 36-5 0-13-146-23-93-182-93-248 0-46 29-46 11 0 27 13t20 14 4-5q-5-18-30-30t-43-12-28 2q-24 9-24 58 0 101 77 257l-120-3Q618 129 483 30 281-117 167-117q-7 0-14 1Q-1-103-1 42q0 86 54 182 72 128 197 218t224 91 99-73q0-49-30-109t-61-76q-3-1-6-1t-4 2l33 54q34 53 34 93t-17 64-56 25q-78 0-186-87T115 211 58 13Q58-94 167-94q104 0 282 134 79 59 257 223-35-2-65-7-64-12-60 4 4 37 38 37 66-8 111-8 86 79 257 259 115 121 140 121 11 0 11-17t-9-53-20-44q-23-16-43-43t-57-103-63-123zm80 244L770 290h59q21-1 52-1 29 57 145 241zm123 192h-7l-7 5 4 8 105 81q10 9 18 9t8-12-8-20q-9-7-61-39z"/><glyph unicode="Â" glyph-name="Acircumflex" horiz-adv-x="1020" d="M946 286l97 2q36 0 36-5 0-13-146-23-93-182-93-248 0-46 29-46 11 0 27 13t20 14 4-5q-5-18-30-30t-43-12-28 2q-24 9-24 58 0 101 77 257l-120-3Q618 129 483 30 281-117 167-117q-7 0-14 1Q-1-103-1 42q0 86 54 182 72 128 197 218t224 91 99-73q0-49-30-109t-61-76q-3-1-6-1t-4 2l33 54q34 53 34 93t-17 64-56 25q-78 0-186-87T115 211 58 13Q58-94 167-94q104 0 282 134 79 59 257 223-35-2-65-7-64-12-60 4 4 37 38 37 66-8 111-8 86 79 257 259 115 121 140 121 11 0 11-17t-9-53-20-44q-23-16-43-43t-57-103-63-123zm80 244L770 290h59q21-1 52-1 29 57 145 241zm-2 183q-22-6-22 7 0 3 10 12 76 46 99 66 30 25 36 25 15 0 57-46t43-52 2-8q0-10-8-10t-43 32-57 45q-6-4-33-21t-52-33-32-17z"/><glyph unicode="Ã" glyph-name="Atilde" horiz-adv-x="1020" d="M946 286l97 2q36 0 36-5 0-13-146-23-93-182-93-248 0-46 29-46 11 0 27 13t20 14 4-5q-5-18-30-30t-43-12-28 2q-24 9-24 58 0 101 77 257l-120-3Q618 129 483 30 281-117 167-117q-7 0-14 1Q-1-103-1 42q0 86 54 182 72 128 197 218t224 91 99-73q0-49-30-109t-61-76q-3-1-6-1t-4 2l33 54q34 53 34 93t-17 64-56 25q-78 0-186-87T115 211 58 13Q58-94 167-94q104 0 282 134 79 59 257 223-35-2-65-7-64-12-60 4 4 37 38 37 66-8 111-8 86 79 257 259 115 121 140 121 11 0 11-17t-9-53-20-44q-23-16-43-43t-57-103-63-123zm80 244L770 290h59q21-1 52-1 29 57 145 241zm252 269q0-15-40-42-13-8-29-8t-49 13-49 14-33-13-21-13q-1 1-1 2 0 16 43 41 16 10 33 10t49-10 52-11 39 21q6 0 6-4z"/><glyph unicode="Ä" glyph-name="Adieresis" horiz-adv-x="1020" d="M946 286l97 2q36 0 36-5 0-13-146-23-93-182-93-248 0-46 29-46 11 0 27 13t20 14 4-5q-5-18-30-30t-43-12-28 2q-24 9-24 58 0 101 77 257l-120-3Q618 129 483 30 281-117 167-117q-7 0-14 1Q-1-103-1 42q0 86 54 182 72 128 197 218t224 91 99-73q0-49-30-109t-61-76q-3-1-6-1t-4 2l33 54q34 53 34 93t-17 64-56 25q-78 0-186-87T115 211 58 13Q58-94 167-94q104 0 282 134 79 59 257 223-35-2-65-7-64-12-60 4 4 37 38 37 66-8 111-8 86 79 257 259 115 121 140 121 11 0 11-17t-9-53-20-44q-23-16-43-43t-57-103-63-123zm80 244L770 290h59q21-1 52-1 29 57 145 241zm247 292q-1 0-14-18l-16-40q-12-27-27-27-7 0-14 10t-7 22 29 33q30 21 46 21l3-1zm-178-85q-7 0-14 10t-7 22 29 33q30 21 46 21 1 0 3-1-1 0-14-18l-16-40q-12-27-27-27zm179 85v-1l-1 1h1zm-121 0v-1l-1 1h1z"/><glyph unicode="Å" glyph-name="Aring" horiz-adv-x="1020" d="M706 263q-35-2-65-7-64-12-60 4 4 37 38 37 66-8 111-8 86 79 257 259 87 92 123 114-16 9-16 32t11 48 28 29q17 32 51 32 18 0 30-15t13-44-28-58-62-29q1-3 1-12t-9-46-20-44q-23-16-43-43t-57-103-63-123l97 2q36 0 36-5 0-13-146-23-93-182-93-248 0-46 29-46 11 0 27 13t20 14 4-5q-5-18-30-30t-43-12-28 2q-24 9-24 58 0 101 77 257l-120-3Q618 129 483 30 281-117 167-117q-7 0-14 1Q-1-103-1 42q0 86 54 182 72 128 197 218t224 91 99-73q0-49-30-109t-61-76q-3-1-6-1t-4 2l33 54q34 53 34 93t-17 64-56 25q-78 0-186-87T115 211 58 13Q58-94 167-94q104 0 282 134 79 59 257 223zm320 267L770 290h59q21-1 52-1 29 57 145 241zm143 146l17 23 17 55-22 31q-12 0-29-13l11-6q-1-3-16-26t-16-44 15-20q23 0 40 23z"/><glyph unicode="Æ" glyph-name="AE" horiz-adv-x="1400" d="M1131 606q112 58 228 58 57 0 91-18t35-57-28-65-60-27-31 15q0 9 13 9l20-3q20 0 36 21t17 45q0 34-39 50-25 10-47 10t-31-1q-85-5-168-60-96-63-96-142 0-29 20-54 64 20 122 20 98 0 98-37 0-8-6-18-24-37-87-37-41 0-83 14t-66 31q-27-8-110-48l-13-26q-62-121-62-211 0-39 15-66 24-42 71-49 18-3 43-3t70 9 97 34 84 55q79 70 79 147 0 61-59 61-71 0-163-76-23-19-39-48t-16-57 28-35q10-4 10-10 0-10-20-8-48 1-48 63t63 116q86 74 182 74 43 0 71-22t28-65q0-97-103-175-36-27-90-49-81-33-168-33-31 0-60 5-53 9-89 50-40 45-40 121 0 35 13 80 14 47 29 69l-120-3Q618 129 483 30 281-117 167-117q-7 0-14 1Q-1-103-1 42q0 86 54 182 72 128 197 218t224 91 99-73q0-49-30-109t-61-76q-3-1-6-1t-4 2l33 54q34 53 34 93t-17 64-56 25q-78 0-186-87T115 211 58 13Q58-94 167-94q104 0 282 134 79 59 257 223-35-2-65-7-64-12-60 4 4 37 38 37 66-8 111-8 86 79 257 259 115 121 140 121 11 0 11-19t-7-44zm-105-76L770 290h59q21-1 52-1 29 57 145 241zm82-159q42-34 98-34t57 31q0 14-50 14t-105-11zm-86 63q-40-79-43-85 28 12 73 27-24 26-30 58z"/><glyph unicode="Ç" glyph-name="Ccedilla" horiz-adv-x="726" d="M228-212q0-46-48-72T79-310q-9 0-9 10 0 6 9 8 48 8 72 11 35 11 35 58 0 14-26 51t-26 56q0 43 25 68Q31 2 31 155t150 311q83 87 197 135t216 49q54 0 94-13 109-34 109-137 0-63-37-109-92-113-219-113-60 0-101 27t-41 70q0 53 69 106 12 9 18 9t6-4q0-10-16-16-56-45-56-91 0-33 30-55t75-23q98 0 185 94 45 49 45 113t-48 95q-40 28-108 28-98 0-197-49-122-59-220-183T83 159q0-91 62-140t154-50q105 0 206 51 77 40 133 102 16 18 25 18 6 0 6-10t-11-22Q605 52 505 0 382-65 264-65q-42 0-80 9-14-19-14-42 0-11 29-49t29-65z"/><glyph unicode="È" glyph-name="Egrave" horiz-adv-x="691" d="M504 407q98 0 98-37 0-8-6-18-24-37-87-37-41 0-84 14t-65 31q-93-27-165-83T86 150q-19-38-19-74 0-56 46-91t137-35q25 0 52 3Q461-30 555 55q79 70 79 147 0 61-59 61-71 0-163-76-23-19-39-48t-16-57 28-35q10-4 10-10 0-10-20-8-48 1-48 63t63 116q86 74 182 74 72 0 91-45 8-21 8-42 0-93-103-175Q445-80 256-80 139-80 71-37T3 77q0 41 26 82 92 146 314 217-33 38-33 81t21 72q41 56 123 92 98 43 196 43 57 0 91-18t35-57-28-65-60-27-31 15q0 9 13 9l20-3q20 0 36 21t17 45q0 34-39 50-25 10-47 10t-31-1q-86-5-168-60-96-63-96-142 0-29 20-54 64 20 122 20zm-105-36q43-34 99-34t56 31q0 14-50 14t-105-11zm310 353q4-3 4-7t-6-5-59 32-61 38-9 19 9 13q14 0 122-90z"/><glyph unicode="É" glyph-name="Eacute" horiz-adv-x="691" d="M504 407q98 0 98-37 0-8-6-18-24-37-87-37-41 0-84 14t-65 31q-93-27-165-83T86 150q-19-38-19-74 0-56 46-91t137-35q25 0 52 3Q461-30 555 55q79 70 79 147 0 61-59 61-71 0-163-76-23-19-39-48t-16-57 28-35q10-4 10-10 0-10-20-8-48 1-48 63t63 116q86 74 182 74 72 0 91-45 8-21 8-42 0-93-103-175Q445-80 256-80 139-80 71-37T3 77q0 41 26 82 92 146 314 217-33 38-33 81t21 72q41 56 123 92 98 43 196 43 57 0 91-18t35-57-28-65-60-27-31 15q0 9 13 9l20-3q20 0 36 21t17 45q0 34-39 50-25 10-47 10t-31-1q-86-5-168-60-96-63-96-142 0-29 20-54 64 20 122 20zm-105-36q43-34 99-34t56 31q0 14-50 14t-105-11zm261 351h-7l-7 5 4 8 105 81q11 9 17 9 9 0 9-12t-8-20q-9-7-61-39z"/><glyph unicode="Ê" glyph-name="Ecircumflex" horiz-adv-x="691" d="M504 407q98 0 98-37 0-8-6-18-24-37-87-37-41 0-84 14t-65 31q-93-27-165-83T86 150q-19-38-19-74 0-56 46-91t137-35q25 0 52 3Q461-30 555 55q79 70 79 147 0 61-59 61-71 0-163-76-23-19-39-48t-16-57 28-35q10-4 10-10 0-10-20-8-48 1-48 63t63 116q86 74 182 74 72 0 91-45 8-21 8-42 0-93-103-175Q445-80 256-80 139-80 71-37T3 77q0 41 26 82 92 146 314 217-33 38-33 81t21 72q41 56 123 92 98 43 196 43 57 0 91-18t35-57-28-65-60-27-31 15q0 9 13 9l20-3q20 0 36 21t17 45q0 34-39 50-25 10-47 10t-31-1q-86-5-168-60-96-63-96-142 0-29 20-54 64 20 122 20zm-105-36q43-34 99-34t56 31q0 14-50 14t-105-11zm200 344q-22-6-22 7 0 3 10 12 76 46 99 66 30 25 36 25 15 0 57-46t43-52 2-8q0-10-8-10t-43 32-57 45q-6-4-33-21t-52-33-32-17z"/><glyph unicode="Ë" glyph-name="Edieresis" horiz-adv-x="691" d="M504 407q98 0 98-37 0-8-6-18-24-37-87-37-41 0-84 14t-65 31q-93-27-165-83T86 150q-19-38-19-74 0-56 46-91t137-35q25 0 52 3Q461-30 555 55q79 70 79 147 0 61-59 61-71 0-163-76-23-19-39-48t-16-57 28-35q10-4 10-10 0-10-20-8-48 1-48 63t63 116q86 74 182 74 72 0 91-45 8-21 8-42 0-93-103-175Q445-80 256-80 139-80 71-37T3 77q0 41 26 82 92 146 314 217-33 38-33 81t21 72q41 56 123 92 98 43 196 43 57 0 91-18t35-57-28-65-60-27-31 15q0 9 13 9l20-3q20 0 36 21t17 45q0 34-39 50-25 10-47 10t-31-1q-86-5-168-60-96-63-96-142 0-29 20-54 64 20 122 20zm-105-36q43-34 99-34t56 31q0 14-50 14t-105-11zm420 422q-1 0-14-18l-16-40q-12-27-27-27-7 0-14 10t-7 22 29 33q30 21 46 21l3-1zm-124 1l3-1q-1 0-14-18l-16-40q-12-27-27-27-7 0-14 10t-7 22 29 33q30 21 46 21zm125-1v-1l-1 1h1zm-121-1q0 1-1 1h1v-1z"/><glyph unicode="Ì" glyph-name="Igrave" horiz-adv-x="576" d="M714 396l-7 27q0 8 8 8 3 0 8-3 23-17 23-45t-36-54-91-27q-17 0-34 3-69-127-168-234Q285-69 177-69 21-69 21 115q0 152 81 245 68 80 156 80 23 0 47-8 59-23 59-97t-61-156-125-81q-72 0-72 78 0 22 9 46t22 24q9 0 9-9 0-5-9-25t-9-35 16-29 35-14q59 0 109 72t51 142q0 53-38 70-13 5-27 5-71 0-142-98-69-99-69-217Q63 43 91 2q29-42 80-42 132 0 344 359-110 33-110 130 0 129 131 206 83 48 161 48 61 0 110-20 69-27 69-82 0-12-5-23t-12-11q-13 13-31 13-85 0-233-253 8-1 17-1 34 0 68 20t34 50zm-44 279l-66-29-106-87-40-129 74-86q55 90 142 179t145 90q15 0 26-7-1 28-39 49-34 20-85 20zm195 60q4-3 4-7t-6-5-59 32-62 38-9 19 10 13q12 0 122-90z"/><glyph unicode="Í" glyph-name="Iacute" horiz-adv-x="576" d="M714 396l-7 27q0 8 8 8 3 0 8-3 23-17 23-45t-36-54-91-27q-17 0-34 3-69-127-168-234Q285-69 177-69 21-69 21 115q0 152 81 245 68 80 156 80 23 0 47-8 59-23 59-97t-61-156-125-81q-72 0-72 78 0 22 9 46t22 24q9 0 9-9 0-5-9-25t-9-35 16-29 35-14q59 0 109 72t51 142q0 53-38 70-13 5-27 5-71 0-142-98-69-99-69-217Q63 43 91 2q29-42 80-42 132 0 344 359-110 33-110 130 0 129 131 206 83 48 161 48 61 0 110-20 69-27 69-82 0-12-5-23t-12-11q-13 13-31 13-85 0-233-253 8-1 17-1 34 0 68 20t34 50zm-44 279l-66-29-106-87-40-129 74-86q55 90 142 179t145 90q15 0 26-7-1 28-39 49-34 20-85 20zm107 47h-7l-7 5 4 8 105 81q10 9 18 9t8-12-8-20q-9-7-61-39z"/><glyph unicode="Î" glyph-name="Icircumflex" horiz-adv-x="576" d="M714 396l-7 27q0 8 8 8 3 0 8-3 23-17 23-45t-36-54-91-27q-17 0-34 3-69-127-168-234Q285-69 177-69 21-69 21 115q0 152 81 245 68 80 156 80 23 0 47-8 59-23 59-97t-61-156-125-81q-72 0-72 78 0 22 9 46t22 24q9 0 9-9 0-5-9-25t-9-35 16-29 35-14q59 0 109 72t51 142q0 53-38 70-13 5-27 5-71 0-142-98-69-99-69-217Q63 43 91 2q29-42 80-42 132 0 344 359-110 33-110 130 0 129 131 206 83 48 161 48 61 0 110-20 69-27 69-82 0-12-5-23t-12-11q-13 13-31 13-85 0-233-253 8-1 17-1 34 0 68 20t34 50zm-44 279l-66-29-106-87-40-129 74-86q55 90 142 179t145 90q15 0 26-7-1 28-39 49-34 20-85 20zm10 40q-22-6-22 7 0 3 10 12 76 46 99 66 30 25 36 25 15 0 57-46t43-52 2-8q0-10-8-10t-43 32-57 45q-6-4-33-21t-52-33-32-17z"/><glyph unicode="Ï" glyph-name="Idieresis" horiz-adv-x="576" d="M714 396l-7 27q0 8 8 8 3 0 8-3 23-17 23-45t-36-54-91-27q-17 0-34 3-69-127-168-234Q285-69 177-69 21-69 21 115q0 152 81 245 68 80 156 80 23 0 47-8 59-23 59-97t-61-156-125-81q-72 0-72 78 0 22 9 46t22 24q9 0 9-9 0-5-9-25t-9-35 16-29 35-14q59 0 109 72t51 142q0 53-38 70-13 5-27 5-71 0-142-98-69-99-69-217Q63 43 91 2q29-42 80-42 132 0 344 359-110 33-110 130 0 129 131 206 83 48 161 48 61 0 110-20 69-27 69-82 0-12-5-23t-12-11q-13 13-31 13-85 0-233-253 8-1 17-1 34 0 68 20t34 50zm-44 279l-66-29-106-87-40-129 74-86q55 90 142 179t145 90q15 0 26-7-1 28-39 49-34 20-85 20zm151 64q-7 0-14 10t-7 22 29 33q30 21 46 21 1 0 3-1-1 0-14-18l-16-40q-12-27-27-27zm-64 85q-1 0-14-18l-16-40q-12-27-27-27-7 0-14 10t-7 22 29 33q30 21 46 21l3-1zm122 0v-1l-1 1h1zm-121 0v-1l-1 1h1z"/><glyph unicode="Ð" glyph-name="Eth" horiz-adv-x="921" d="M526 277q0-18-129-36-85-113-185-196 56-83 176-83 13 0 39 2 278 26 394 241 47 86 47 170t-61 151q-49 55-106 68t-118 13q-154 0-284-71-137-75-137-168 0-25 13-41t19-18h-6q-26 5-46 26-22 26-22 55 0 100 125 172t295 72q78 0 160-18t149-86q77-80 77-181 0-75-44-155Q806 56 655-8 534-59 394-59T187 25Q99-43 58-43q-22 0-32 21T15 25q0 48 40 144t78 96q19 0 32-75t28-109q45 46 125 148-12 0-27 3-32 6-32 21 0 10 8 17t15 7 12 1h63l33 43q162 213 215 233 18 7 37 7t31-8 13-20q0-17-29-20-35-19-108-92-69-67-125-144 66 0 101 3 1-1 1-3zM51 29q0-31 12-54 43 19 104 79-29 48-36 75t-11 73Q51 103 51 29zm143 280q1 0 2 1v-2l-2 1z"/><glyph unicode="Ñ" glyph-name="Ntilde" horiz-adv-x="925" d="M402 12q-24-37-24-48t9-16q0-2-16-12t-46-11-29 15q0 26 98 172t130 203q68 122 68 193 0 28-11 52-17 36-82 36-119 0-253-109-102-84-157-174-50-85-50-152 0-96 89-98h8q118 0 179 83 24 33 24 56t-11 29q-1 1-1 4t6 3q26 0 26-34 0-21-20-57t-72-68-120-32T41 86 2 191q0 156 214 328 54 43 140 72t157 29 100-26 29-74q0-114-138-323 31 39 101 99 249 209 428 275 9 4 20 4 38 0 48-43 5-17-48-71-125-128-212-280T754-37q0-16 6-22t19-5 54 21 55 21q5-2 5-5 0-15-52-42t-79-27-33 9q-18 25-18 63 0 86 92 247 59 101 182 272-133-12-344-210Q473 126 402 12zm619 720q0-15-40-42-13-8-29-8t-49 13-49 14-33-13-21-13q-1 1-1 2 0 16 43 41 16 10 33 10t49-10 52-11 39 21q6 0 6-4z"/><glyph unicode="Ò" glyph-name="Ograve" horiz-adv-x="784" d="M812 356q0-125-128-239Q487-59 243-59q-27 0-42 1-80 4-128 52T24 120t41 168q52 115 203 224 174 124 360 124 100 0 152-39t52-97q0-36-28-89 8-27 8-55zm-21 85q10 24 10 53t-22 61q-43 60-152 60-151 0-285-93T133 286Q78 183 78 101 78-31 211-38q14-1 28-1 197 0 375 159 128 114 138 217-52-57-180-136l-8-2q-1 0-1 1 0 4 27 27l56 46q72 63 105 103-7 56-50 93t-100 55q-28 7-86 9t-59 4 2 4q46 15 88 15t98-13q105-25 147-102zm-1 274q4-3 4-7t-6-5-59 32-62 38-9 19 10 13q12 0 122-90z"/><glyph unicode="Ó" glyph-name="Oacute" horiz-adv-x="784" d="M812 356q0-125-128-239Q487-59 243-59q-27 0-42 1-80 4-128 52T24 120t41 168q52 115 203 224 174 124 360 124 100 0 152-39t52-97q0-36-28-89 8-27 8-55zm-21 85q10 24 10 53t-22 61q-43 60-152 60-151 0-285-93T133 286Q78 183 78 101 78-31 211-38q14-1 28-1 197 0 375 159 128 114 138 217-52-57-180-136l-8-2q-1 0-1 1 0 4 27 27l56 46q72 63 105 103-7 56-50 93t-100 55q-28 7-86 9t-59 4 2 4q46 15 88 15t98-13q105-25 147-102zM680 702h-7l-7 5 4 8 105 81q11 9 17 9 9 0 9-12t-8-20q-9-7-61-39z"/><glyph unicode="Ô" glyph-name="Ocircumflex" horiz-adv-x="784" d="M812 356q0-125-128-239Q487-59 243-59q-27 0-42 1-80 4-128 52T24 120t41 168q52 115 203 224 174 124 360 124 100 0 152-39t52-97q0-36-28-89 8-27 8-55zm-21 85q10 24 10 53t-22 61q-43 60-152 60-151 0-285-93T133 286Q78 183 78 101 78-31 211-38q14-1 28-1 197 0 375 159 128 114 138 217-52-57-180-136l-8-2q-1 0-1 1 0 4 27 27l56 46q72 63 105 103-7 56-50 93t-100 55q-28 7-86 9t-59 4 2 4q46 15 88 15t98-13q105-25 147-102zM575 686q-5 1-5 4 0 4 11 13 109 67 156 107l7 3q12-1 60-52 42-48 42-59t-9-12q-11 0-43 28t-57 54q-6-4-33-21t-63-40-66-25z"/><glyph unicode="Õ" glyph-name="Otilde" horiz-adv-x="784" d="M812 356q0-125-128-239Q487-59 243-59q-27 0-42 1-80 4-128 52T24 120t41 168q52 115 203 224 174 124 360 124 100 0 152-39t52-97q0-36-28-89 8-27 8-55zm-21 85q10 24 10 53t-22 61q-43 60-152 60-151 0-285-93T133 286Q78 183 78 101 78-31 211-38q14-1 28-1 197 0 375 159 128 114 138 217-52-57-180-136l-8-2q-1 0-1 1 0 4 27 27l56 46q72 63 105 103-7 56-50 93t-100 55q-28 7-86 9t-59 4 2 4q46 15 88 15t98-13q105-25 147-102zm51 291q0-15-40-42-13-8-29-8t-49 13-49 14-33-13-21-13q-1 1-1 2 0 16 43 41 16 10 33 10t49-10 52-11 39 21q6 0 6-4z"/><glyph unicode="Ö" glyph-name="Odieresis" horiz-adv-x="784" d="M812 356q0-125-128-239Q487-59 243-59q-27 0-42 1-80 4-128 52T24 120t41 168q52 115 203 224 174 124 360 124 100 0 152-39t52-97q0-36-28-89 8-27 8-55zm-21 85q10 24 10 53t-22 61q-43 60-152 60-151 0-285-93T133 286Q78 183 78 101 78-31 211-38q14-1 28-1 197 0 375 159 128 114 138 217-52-57-180-136l-8-2q-1 0-1 1 0 4 27 27l56 46q72 63 105 103-7 56-50 93t-100 55q-28 7-86 9t-59 4 2 4q46 15 88 15t98-13q105-25 147-102zm24 347q-1 0-14-18l-16-40q-12-27-27-27-7 0-14 10t-7 22 29 33q30 21 46 21l3-1zm-178-85q-7 0-14 10t-7 22 29 33q30 21 46 21 1 0 3-1-1 0-14-18l-16-40q-12-27-27-27zm179 85v-1l-1 1h1zm-121 0v-1l-1 1h1z"/><glyph unicode="×" glyph-name="multiply" horiz-adv-x="284" d="M125 299l13 1q10 0 13-11t14-82q12 12 61 52t52 40q13 0 13-12 0-3-4-7l-119-91q15-91 59-91 5 0 28 7 3 0 3-2 0-7-25-16t-43-9-30 20-25 71q-8-10-52-51T30 76t-9 5q5 10 51 54t59 52l-10 56q-6 23-15 34t-14 12-6 4q0 6 39 6z"/><glyph unicode="Ø" glyph-name="Oslash" horiz-adv-x="784" d="M715 698h11l17-6 7-14-9-18-29-33q42-11 69-31 51-38 51-96 0-36-28-89 8-27 8-55 0-125-128-239Q487-59 243-59h-22q-2-7-2-23t7-20 4-12q-7-10-21-10-17 0-17 24t4 43Q118-52 71-4T24 120t41 168q52 115 203 224 174 124 360 124 23 0 33-1 54 63 65 63zM458 541q46 15 79 15t58-4q10 14 27 35t22 27q-5 1-17 1-151 0-285-93T133 286Q78 183 78 101 78-25 201-37q2 9 13 39 31 85 261 394 83 109 101 132-19 3-69 5t-51 4 2 4zM240-38q197 0 374 158 128 114 138 217-52-57-180-136l-8-2q-1 0-1 1 0 4 27 27l56 46q72 63 105 103-7 56-54 96-33 29-76 45-66-82-176-228Q266 51 228-38h12zm551 479q10 24 10 53t-25 65-80 48q-7-8-53-64h1q105-25 147-102z"/><glyph unicode="Ù" glyph-name="Ugrave" horiz-adv-x="801" d="M345-19q-43 0-43 30 0 52 132 238t161 230q61 94 61 128 0 17-13 21-24 10-56 10-110 0-281-117-112-78-185-182T47 166q0-49 40-56 16-3 32-3 51 0 105 33 27 16 68 53l18 6q-19-36-79-73T106 89q-15 0-35 4t-38 28-19 65q0 157 296 369 60 41 142 73t149 33q34 0 65-13t32-43-35-87-111-159-128-192-53-124q0-17 14-17 27 0 101 56 176 134 414 435 38 48 61 48 9 0 9-9 0-4-3-10 1-3 1-6 0-21-24-57L826 316q-72-104-127-197T648 10l18 6q50 28 87 65 13 10 16 10l2-2q0-9-27-38-70-61-100-61T614 9t53 118 172 273q-20-24-63-71Q530 77 481 38q-73-57-136-57zm526 664q0-6-6-6t-55 29-62 39-13 21 10 13q15 0 122-90 4-3 4-6z"/><glyph unicode="Ú" glyph-name="Uacute" horiz-adv-x="801" d="M345-19q-43 0-43 30 0 52 132 238t161 230q61 94 61 128 0 17-13 21-24 10-56 10-110 0-281-117-112-78-185-182T47 166q0-49 40-56 16-3 32-3 51 0 105 33 27 16 68 53l18 6q-19-36-79-73T106 89q-15 0-35 4t-38 28-19 65q0 157 296 369 60 41 142 73t149 33q34 0 65-13t32-43-35-87-111-159-128-192-53-124q0-17 14-17 27 0 101 56 176 134 414 435 38 48 61 48 9 0 9-9 0-4-3-10 1-3 1-6 0-21-24-57L826 316q-72-104-127-197T648 10l18 6q50 28 87 65 13 10 16 10l2-2q0-9-27-38-70-61-100-61T614 9t53 118 172 273q-20-24-63-71Q530 77 481 38q-73-57-136-57zm555 731q10 9 18 9t8-11-10-21-60-40-57-31-7 7q0 3 3 6l105 81z"/><glyph unicode="Û" glyph-name="Ucircumflex" horiz-adv-x="801" d="M345-19q-43 0-43 30 0 52 132 238t161 230q61 94 61 128 0 17-13 21-24 10-56 10-110 0-281-117-112-78-185-182T47 166q0-49 40-56 16-3 32-3 51 0 105 33 27 16 68 53l18 6q-19-36-79-73T106 89q-15 0-35 4t-38 28-19 65q0 157 296 369 60 43 142 74t149 32q34 0 65-13t32-43-35-87-111-159-128-192-53-124q0-17 14-17 27 0 101 56 176 134 414 435 38 48 61 48 9 0 9-9 0-4-3-10 1-3 1-6 0-21-24-57L826 316q-72-104-127-197T648 10l18 6q50 28 87 65 13 10 16 10l2-2q0-9-27-38-70-61-100-61T614 9t53 118 172 273q-20-24-63-71Q530 77 481 38q-73-57-136-57zm434 696q-22-6-22 7 0 3 10 12 76 46 99 66 30 25 36 25 15 0 57-46t43-52 2-8q0-10-8-10t-43 32-57 45q-6-4-33-21t-52-33-32-17z"/><glyph unicode="Ü" glyph-name="Udieresis" horiz-adv-x="801" d="M345-19q-43 0-43 30 0 52 132 238t161 230q61 94 61 128 0 17-13 21-24 10-56 10-110 0-281-117-112-78-185-182T47 166q0-49 40-56 16-3 32-3 51 0 105 33 27 16 68 53l18 6q-19-36-79-73T106 89q-15 0-35 4t-38 28-19 65q0 157 296 369 60 43 142 74t149 32q34 0 65-13t32-43-35-87-111-159-128-192-53-124q0-17 14-17 27 0 101 56 176 134 414 435 38 48 61 48 9 0 9-9 0-4-3-10 1-3 1-6 0-21-24-57L826 316q-72-104-127-197T648 10l18 6q50 28 87 65 13 10 16 10l2-2q0-9-27-38-70-61-100-61T614 9t53 118 172 273q-20-24-63-71Q530 77 481 38q-73-57-136-57zm438 660q-7 0-14 10t-7 22 29 33q30 21 46 21 1 0 3-1-1 0-14-18l-16-40q-12-27-27-27zm178 85q-1 0-14-18l-16-40q-12-27-27-27-7 0-14 10t-7 22 29 33q30 21 46 21l3-1zm-120-1q0 1-1 1h1v-1zm121 0q0 1-1 1h1v-1z"/><glyph unicode="Ý" glyph-name="Yacute" horiz-adv-x="882" d="M336-254q-38 0-74 27t-37 60q0 21 21 21 5 0 15-2 12-42 20-57 17-27 58-27 123 0 302 336l180 321Q628 219 548 139T437 40Q377 4 338 4q-57 0-57 67 0 80 68 165 5 6 42 51t88 109 84 121 34 82-14 31q-29 15-66 15-106 0-293-128-78-53-124-123T54 265t57-74q18-5 35-5 51 0 113 44 73 49 82 52-10-37-79-81-76-47-142-47-9 0-33 3t-49 37-24 80q0 136 199 278 58 42 153 76t153 34 89-18 31-59-56-126-177-233q-25-29-46-75t-21-74 21-28 65 31q122 87 243 211t179 208q41 59 87 59 16 0 16-10 0-2-2-8Q822 320 605-44q-64-105-136-157t-133-53zm430 907h-7l-7 5 4 8 105 81q11 9 17 9 9 0 9-12t-8-20q-9-7-61-39z"/><glyph unicode="Þ" glyph-name="Thorn" horiz-adv-x="165" d="M399 613l-37-7q-6 0-5 6 5 15 41 15t52-11 15-22-2-21-28-50-62-100-49-77q10 9 40 18 38 10 54 10 36 0 62-20t27-60-23-84-71-83q-71-55-159-55-45 0-63 5t-38 25Q-21-153-21-197q0-12 13-12l34 11q3 0 1-2-2-7-17-13t-23-7q-40 0-40 36 0 50 73 162l346 527q40 66 45 87 6 21-12 21zm57-305q0 38-45 38t-82-19q-14-7-44-37-104-147-120-171 21-19 76-19 77 0 132 43 83 66 83 165z"/><glyph unicode="ß" glyph-name="germandbls" horiz-adv-x="581" d="M159 120q-18 0-18-34t27-62q14-14 36-21-25 25-37 91-5 26-8 26zm-552-272q-27-34-27-68t25-54 73-21 87 31q83 63 158 174T46 124q156 338 220 439t143 101q67 0 101-25t34-98q0-53-33-83t-100-52q-28-10-43-17t-33-25-18-42q0-39 70-59 112-23 138-41 36-27 36-62 0-53-52-97T396 0 283-20q-5 0-47 7 7-4 37-16t38-15 8-4q0-4-10-4t-42 14-48 27q-43 6-61 23-14 11-24 31t-11 38 12 35 32 16q17 0 20-29 4-29 8-45t10-32 17-28q22-5 44-5 100 0 195 76 45 36 45 74t-51 52l-108 27q-32 9-52 30t-20 47q0 44 35 75t82 47 77 48 29 76-22 69-61 27-81-53-85-138-88-187T62 59-49-129t-130-138-149-53q-53 0-83 23t-31 57q0 33 21 69l15 14q3 6 12 6l1-1z"/><glyph unicode="à" glyph-name="agrave" horiz-adv-x="412" d="M332 299l14 3q11 0 21-9t10-14-62-96-62-128q0-3 1-6 5-23 22-23 52 0 190 172 3 4 7 4t4-7-9-20Q340 4 273 4q-9 0-17 3-44 17-44 66 0 17 4 34l-63-60Q95-5 69-5T18 12Q-9 32-9 65q0 73 102 174t187 102q33 0 44-23 3-8 5-13t3-6zM33 53q0-36 25-36 57 0 157 127 98 133 107 146-8 14-26 14-61 0-162-94T33 53zm306 344q0-6-5-6-7 0-46 24t-54 36q-7 4-7 14t7 11 52-33 48-39 5-7z"/><glyph unicode="á" glyph-name="aacute" horiz-adv-x="412" d="M332 299l14 3q11 0 21-9t10-14-62-96-62-128q0-3 1-6 5-23 22-23 52 0 190 172 3 4 7 4t4-7-9-20Q340 4 273 4q-9 0-17 3-44 17-44 66 0 17 4 34l-63-60Q95-5 69-5T18 12Q-9 32-9 65q0 73 102 174t187 102q33 0 44-23 3-8 5-13t3-6zM33 53q0-36 25-36 57 0 157 127 98 133 107 146-8 14-26 14-61 0-162-94T33 53zm374 435q-9-7-62-39t-59-32-6 6q0 3 3 6l106 82q11 9 17 9 9 0 9-12t-8-20z"/><glyph unicode="â" glyph-name="acircumflex" horiz-adv-x="412" d="M332 299l14 3q11 0 21-9t10-14-62-96-62-128q0-3 1-6 5-23 22-23 52 0 190 172 3 4 7 4t4-7-9-20Q340 4 273 4q-9 0-17 3-44 17-44 66 0 17 4 34l-63-60Q95-5 69-5T18 12Q-9 32-9 65q0 73 102 174t187 102q33 0 44-23 3-8 5-13t3-6zM33 53q0-36 25-36 57 0 157 127 98 133 107 146-8 14-26 14-61 0-162-94T33 53zm231 326q-4 0-4 6t34 34 43 30l4-1q23-26 71-61l3-6-3-4q-11 0-41 19t-42 31q-57-48-65-48z"/><glyph unicode="ã" glyph-name="atilde" horiz-adv-x="412" d="M332 299l14 3q11 0 21-9t10-14-62-96-62-128q0-3 1-6 5-23 22-23 52 0 190 172 3 4 7 4t4-7-9-20Q340 4 273 4q-9 0-17 3-44 17-44 66 0 17 4 34l-63-60Q95-5 69-5T18 12Q-9 32-9 65q0 73 102 174t187 102q33 0 44-23 3-8 5-13t3-6zM33 53q0-36 25-36 57 0 157 127 98 133 107 146-8 14-26 14-61 0-162-94T33 53zm288 389l69-15q18 0 30 15 2 1 3 1t2-3q0-10-19-23t-30-13-36 9q-21 10-33 10t-43-19q-1 1-1 2 0 13 31 29 13 7 27 7z"/><glyph unicode="ä" glyph-name="adieresis" horiz-adv-x="412" d="M332 299l14 3q11 0 21-9t10-14-62-96-62-128q0-3 1-6 5-23 22-23 52 0 190 172 3 4 7 4t4-7-9-20Q340 4 273 4q-9 0-17 3-44 17-44 66 0 17 4 34l-63-60Q95-5 69-5T18 12Q-9 32-9 65q0 73 102 174t187 102q33 0 44-23 3-8 5-13t3-6zM33 53q0-36 25-36 57 0 157 127 98 133 107 146-8 14-26 14-61 0-162-94T33 53zm347 345q-6 0-12 8t-6 15q0 13 25 30t31 17 8-1v1q1-1 1-2-6-8-12-14l-14-32q-9-22-21-22zm-99 0q-6 0-11 8t-6 15q0 13 25 30t31 17 8-1v-1l-11-14-14-32q-9-22-22-22z"/><glyph unicode="å" glyph-name="aring" horiz-adv-x="412" d="M33 53q0-36 25-36 58 0 158 127l106 146q-8 14-26 14-61 0-162-94T33 53zm299 246l14 3q11 0 21-9t10-14-62-96-62-128q0-3 1-6 5-23 22-23 52 0 190 172 3 4 7 4t4-7-9-20Q340 4 273 4q-9 0-17 3-44 17-44 66 0 17 4 34l-62-60Q95-5 69-5T18 12Q-9 32-9 67q0 73 96 167 106 106 190 107-5 10-5 26t11 41 28 29q17 32 51 32 18 0 30-15t13-43-25-55-58-33q2-3 4-9 3-15 6-15zm15 43l17 23 17 55-22 31q-10 0-29-14l11-5q-1-3-16-26t-16-44 15-20q23 0 40 23z"/><glyph unicode="æ" glyph-name="ae" horiz-adv-x="282" d="M336 93v-3l-1-5q-19-31-63-60T198-4 158 7q-7 14-17 29-4 20-4 34t1 25Q82-4 39-4 13-4 13 24q0 42 41 104 56 81 110 81 28 0 42-20 26 23 53 23 21 0 21-25t-37-59-66-46q-6-20-6-35 0-33 30-33 58 0 120 71 8 8 11 8zm-81 86q0 9-10 9-13 0-35-35t-28-54q24 11 48 35t25 45zm-94 3q-35 0-77-53T41 38q0-17 13-17 27 0 67 67 30 48 48 93-2 1-8 1z"/><glyph unicode="ç" glyph-name="ccedilla" horiz-adv-x="283" d="M80-181q0-47-48-73t-101-26q-9 0-9 11 0 5 9 8 48 8 72 11 35 11 35 58 0 13-26 50t-26 62 12 47T33-1Q-8 19-8 62q0 70 88 162t158 92q23 0 37-12t15-34-13-45-39-24-26 16q0 11 13 33t14 24-3 2q-28-3-76-40t-67-62l-39-57q-10-16-14-38t-5-33 12-25T83 7q50 0 124 58t114 112q5 6 12 6t7-4-5-10Q280 96 204 42T76-13q-14 0-18 2t-5 2Q21-25 21-68q0-11 29-48t30-65z"/><glyph unicode="è" glyph-name="egrave" horiz-adv-x="257" d="M51-13q-11 0-20 3-64 18-64 72 0 70 88 162t158 92q23 0 37-12t15-31q0-56-84-107T43 115q-8 0-14 2-15-27-15-57Q14 8 63 8t129 67q59 47 104 105 9 12 15 12t7-6-8-17Q254 96 179 42T51-13zm189 288q0 12-25 12t-73-39q-63-52-98-109 6-2 13-2 38 0 101 40t80 89q2 5 2 9zm24 89q0-5-4-5-8 0-102 58-7 6-7 16t7 11 23-12 80-63q3-3 3-5z"/><glyph unicode="é" glyph-name="eacute" horiz-adv-x="257" d="M233 368h-6l-6 6q0 3 3 6 50 38 105 82 11 8 17 8 10 0 10-12t-10-20q-10-9-61-39zM51-13q-11 0-20 3-64 18-64 72 0 70 88 162t158 92q23 0 37-12t15-31q0-56-84-107T43 115q-8 0-14 2-15-27-15-57Q14 8 63 8t129 67q59 47 104 105 9 12 15 12t7-6-8-17Q254 96 179 42T51-13zm189 288q0 12-25 12t-73-39q-63-52-98-109 6-2 13-2 38 0 101 40t80 89q2 5 2 9z"/><glyph unicode="ê" glyph-name="ecircumflex" horiz-adv-x="257" d="M51-13q-11 0-20 3-64 18-64 72 0 70 88 162t158 92q23 0 37-12t15-31q0-56-84-107T43 115q-8 0-14 2-15-27-15-57Q14 8 63 8t129 67q59 47 104 105 9 12 15 12t7-6-8-17Q254 96 179 42T51-13zm189 288q0 12-25 12t-73-39q-63-52-98-109 6-2 13-2 38 0 101 40t80 89q2 5 2 9zm0 124q-58-47-63-47t-6 6 34 34 43 30l4-2q23-25 71-61l3-5-3-5q-13 2-43 21t-40 29z"/><glyph unicode="ë" glyph-name="edieresis" horiz-adv-x="257" d="M51-13q-11 0-20 3-64 18-64 72 0 70 88 162t158 92q23 0 37-12t15-31q0-56-84-107T43 115q-8 0-14 2-15-27-15-57Q14 8 63 8t129 67q59 47 104 105 9 12 15 12t7-6-8-17Q254 96 179 42T51-13zm189 288q0 12-25 12t-73-39q-63-52-98-109 6-2 13-2 38 0 101 40t80 89q2 5 2 9zm63 68q-6 0-11 8t-6 19 25 27 37 17q1 0 3-2l-12-14-14-33q-9-22-22-22zm-98 0q-6 0-11 8t-6 19 24 26q24 18 37 18 2 0 3-1v-1q-6-8-12-14-8-22-15-38t-20-17z"/><glyph unicode="ì" glyph-name="igrave" horiz-adv-x="226" d="M44-12q-59 0-59 67 0 54 59 149t95 97q10 0 22-8t13-16q-5-7-12-15t-15-19-22-28-27-36Q23 82 23 46t27-36q36 0 99 53t93 85q7 10 13 10 4 0 4-6 0-30-91-97T44-12zm63 426q-8 8-8 17t7 10 49-31 49-39 8-11-5-4-48 25-52 33z"/><glyph unicode="í" glyph-name="iacute" horiz-adv-x="226" d="M44-12q-59 0-59 67 0 54 59 149t95 97q10 0 22-8t13-16q-5-7-12-15t-15-19-22-28-27-36Q23 82 23 46t27-36q36 0 99 53t93 85q7 10 13 10 4 0 4-6 0-30-91-97T44-12zm242 416q-11-8-62-39t-58-32-7 4 3 7l106 83q10 9 16 9 10 0 10-12t-8-20z"/><glyph unicode="î" glyph-name="icircumflex" horiz-adv-x="226" d="M44-12q-59 0-59 67 0 54 59 149t95 97q10 0 22-8t13-16q-5-7-12-15t-15-19-22-28-27-36Q23 82 23 46t27-36q36 0 99 53t93 85q7 10 13 10 4 0 4-6 0-30-91-97T44-12zm132 406q-58-48-63-48t-6 6 34 34 43 30l3-1q19-21 71-62l3-5-2-4q-12 0-40 18t-43 32z"/><glyph unicode="ï" glyph-name="idieresis" horiz-adv-x="226" d="M44-12q-59 0-59 67 0 54 59 149t95 97q10 0 22-8t13-16q-5-7-12-15t-15-19-22-28-27-36Q23 82 23 46t27-36q36 0 99 53t93 85q7 10 13 10 4 0 4-6 0-30-91-97T44-12zm178 369q-6 0-11 8t-6 19 24 26q24 18 37 18 2 0 3-1v-1l-11-14-14-33q-9-22-22-22zm-98 0q-6 0-11 8t-6 19 24 26q24 18 37 18 2 0 3-1v-1q-6-8-12-14-5-11-13-33-10-22-22-22z"/><glyph unicode="ð" glyph-name="eth" horiz-adv-x="379" d="M124 322q35 43 72 62t67 19 52-17q1 6 1 14 0 50-43 164-69-12-88-12t-28 3-6 14q0 11 23 17t88 12q-12 29-37 73t-25 54 10 14 13 6 11-2q31-10 79-140 80 7 100 7 27 0 27-4-3-15-118-35 31-97 31-195 0-52-11-116t-56-131T179 28Q137 4 98 4 10 4 10 88q0 31 14 77 27 70 100 157zM62 73q0-45 42-45 25 0 64 22t82 82q50 71 58 153 3 13 3 23 0 30-24 38l-9 2q-4 5-16 5-25 0-65-40t-74-93Q62 127 62 73z"/><glyph unicode="ñ" glyph-name="ntilde" horiz-adv-x="403" d="M355 239Q250 115 250 59q0-32 14-32 23 0 70 39t83 82q8 8 12 8t4-5-23-37-70-74-74-42q-60 0-60 68 0 40 40 110l64 104q-68-50-121-109T93 55 42-1Q27-1 19 11t-9 23q0 29 61 148-11-17-81-84-12-12-18-12t-7 3q0 5 24 29t93 111 79 87q27 0 27-21 0-6-3-12Q95 158 77 94q233 233 283 233 5 1 9 1 28 0 28-25 0-5-2-10t-40-54zm64 198q1 1 3 1t2-5q0-15-39-42-13-8-29-8t-49 13-49 14-33-13-21-13q-1 1-1 2 0 16 43 41 16 10 33 10t49-10 52-11 39 21z"/><glyph unicode="ò" glyph-name="ograve" horiz-adv-x="281" d="M261 212q0-35-67-117Q115-2 59-2H43Q17-2 2 25q-12 19-12 42 0 60 87 168t142 109q51 0 51-54 0-14-5-36 1-3 19-3t55 19q-1-17-79-49 1-4 1-9zm-65 52q-34 0-96-80T37 66t24-38q43 0 109 78t66 112q-16 9-40 46zm86 125h-5l-47 25-53 33q-8 8-8 17t7 10 52-34 49-39 5-8z"/><glyph unicode="ó" glyph-name="oacute" horiz-adv-x="281" d="M261 212q0-35-67-117Q115-2 59-2H43Q17-2 2 25q-12 19-12 42 0 60 87 168t142 109q51 0 51-54 0-14-5-36 1-3 19-3t55 19q-1-17-79-49 1-4 1-9zm-65 52q-34 0-96-80T37 66t24-38q43 0 109 78t66 112q-16 9-40 46zm71 124h-6l-6 6q0 3 3 6 50 38 105 82 11 8 17 8 10 0 10-12t-10-20q-10-9-61-39z"/><glyph unicode="ô" glyph-name="ocircumflex" horiz-adv-x="281" d="M261 212q0-35-67-117Q115-2 59-2H43Q17-2 2 25q-12 19-12 42 0 60 87 168t142 109q51 0 51-54 0-14-5-36 1-3 19-3t55 19q-1-17-79-49 1-4 1-9zm-65 52q-34 0-96-80T37 66t24-38q43 0 109 78t66 112q-16 9-40 46zm62 163q-57-48-63-48t-6 6 34 34 43 30l4-1q22-25 71-62l3-5-3-4q-11 0-41 19t-42 31z"/><glyph unicode="õ" glyph-name="otilde" horiz-adv-x="281" d="M261 212q0-35-67-117Q115-2 59-2H43Q17-2 2 25q-12 19-12 42 0 60 87 168t142 109q51 0 51-54 0-14-5-36 1-3 19-3t55 19q-1-17-79-49 1-4 1-9zm-65 52q-34 0-96-80T37 66t24-38q43 0 109 78t66 112q-16 9-40 46zm192 189q0-15-40-42-13-8-29-8t-47 13-49 13-35-13q-22-18-22-10 0 16 43 41 16 10 33 10t49-10 53-11 38 21q6 0 6-4z"/><glyph unicode="ö" glyph-name="odieresis" horiz-adv-x="281" d="M261 212q0-35-67-117Q115-2 59-2H43Q17-2 2 25q-12 19-12 42 0 60 87 168t142 109q51 0 51-54 0-14-5-36 1-3 19-3t55 19q-1-17-79-49 1-4 1-9zm-65 52q-34 0-96-80T37 66t24-38q43 0 109 78t66 112q-16 9-40 46zm131 131q-6 0-12 8t-6 15q0 14 25 30t31 17 8-1v1q1-1 1-2-6-8-12-14l-14-32q-9-22-21-22zm-99 0q-6 0-11 8t-6 15q0 14 25 30t31 17 8-1v-1l-11-14-14-32q-9-22-22-22z"/><glyph unicode="÷" glyph-name="divide" horiz-adv-x="406" d="M210 260l104-1q57 0 82 3 1-2 1-4t-7-8q-17-10-65-18t-88-14-63-7-67 3q-88 6-88 21 0 10 8 17t16 7h15l25 1h127zm-15-91l13-10 14-22-12-22-28-10-27 10-13 25q0 29 38 29 15 0 28-10zm46 200l13-10 14-22-12-22-28-10-27 10-13 25q0 29 38 29 15 0 28-10z"/><glyph unicode="ø" glyph-name="oslash" horiz-adv-x="281" d="M16 7q-26 26-26 60 0 60 87 168t142 109q20 0 32-9 103 133 118 133 9 0 14-5t5-10-31-41-88-108l1-14q0-14-5-36 1-3 19-3t55 19q-1-17-79-49 1-4 1-9 0-35-67-117Q115-2 59-2H42q-62-94-62-126 0-14 9-19 3-2-1-8t-16-7-12 22q0 62 56 147zm220 211q-10 5-20 18Q96 77 62 28q42 1 108 78t66 112zm-40 46q-34 0-96-80T37 62q0-10 2-18 29 44 157 219v1z"/><glyph unicode="ù" glyph-name="ugrave" horiz-adv-x="425" d="M280-6q-5-1-21-1T226 6t-17 33 7 46 11 38l-88-88Q87-11 47-11T2 40v6q0 41 49 111L2 113q-6-6-11-6t-5 5 10 16l132 155q27 30 53 30t27-18q0-7-6-13-40-37-100-123T41 32q0-18 12-18 19 0 68 38l54 45q16 12 102 122 78 97 102 97 36 0 36-28 0-10-42-58-57-69-87-112t-30-71 15-27q7 0 16 4 72 32 165 138 6 7 12 7t6-5q0-20-101-109-65-56-89-61zm42 386q3-3 3-7t-4-4-47 26-52 32-9 17 8 11q12 0 101-75z"/><glyph unicode="ú" glyph-name="uacute" horiz-adv-x="425" d="M280-6q-5-1-21-1T226 6t-17 33 7 46 11 38l-88-88Q87-11 47-11T2 40v6q0 41 49 111L2 113q-6-6-11-6t-5 5 10 16l132 155q27 30 53 30t27-18q0-7-6-13-40-37-100-123T41 32q0-18 12-18 19 0 68 38l54 45q16 12 102 122 78 97 102 97 36 0 36-28 0-10-42-58-57-69-87-112t-30-71 15-27q7 0 16 4 72 32 165 138 6 7 12 7t6-5q0-20-101-109-65-56-89-61zm-2 371h-7l-7 5 3 8q31 22 106 81 11 9 17 9 9 0 9-12t-8-20q-9-7-61-39z"/><glyph unicode="û" glyph-name="ucircumflex" horiz-adv-x="425" d="M280-6q-5-1-21-1T226 6t-17 33 7 46 11 38l-88-88Q87-11 47-11T2 40v6q0 41 49 111L2 113q-6-6-11-6t-5 5 10 16l132 155q27 30 53 30t27-18q0-7-6-13-40-37-100-123T41 32q0-18 12-18 19 0 68 38l54 45q16 12 102 122 78 97 102 97 36 0 36-28 0-10-42-58-57-69-87-112t-30-71 15-27q7 0 16 4 72 32 165 138 6 7 12 7t6-5q0-20-101-109-65-56-89-61zm-27 386q-4 0-4 6t34 34 43 30l4-1q23-26 71-61l3-6-3-4q-11 0-39 17t-44 33q-58-48-65-48z"/><glyph unicode="ü" glyph-name="udieresis" horiz-adv-x="425" d="M280-6q-5-1-21-1T226 6t-17 33 7 46 11 38l-88-88Q87-11 47-11T2 40v6q0 41 49 111L2 113q-6-6-11-6t-5 5 10 16l132 155q27 30 53 30t27-18q0-7-6-13-40-37-100-123T41 32q0-18 12-18 19 0 68 38l54 45q16 12 102 122 78 97 102 97 36 0 36-28 0-10-42-58-57-69-87-112t-30-71 15-27q7 0 16 4 72 32 165 138 6 7 12 7t6-5q0-20-101-109-65-56-89-61zm-9 381q-6 0-12 8t-6 18 24 26 38 18q1 0 2-1v1q1-1 1-2-6-8-12-14l-14-32q-9-22-21-22zm98 0q-6 0-11 8t-6 18 24 26 31 18 9-1v-1q-6-8-12-14l-13-32q-10-22-22-22z"/><glyph unicode="ý" glyph-name="yacute" horiz-adv-x="370" d="M-56-116q48-60 83-60 57 0 123 91 48 67 94 169l38 92L135 61Q67 8 26 8 4 8-9 23t-13 34q0 43 74 141t108 99 34-23q0-9-88-103T17 43q0-13 17-13 32 0 128 75t146 124q11 13 31 39 19 22 42 22t23-22q0-4-45-71t-47-71q-31-60-95-175-97-156-194-156-32 0-56 27t-23 62zm345 451h-7l-7 5 4 8 105 81q10 9 18 9t8-12-8-20q-9-7-61-39z"/><glyph unicode="þ" glyph-name="thorn" horiz-adv-x="271" d="M319 480l-37-7q-6 0-5 6 5 15 41 15t52-11 15-22-2-21-38-65-67-101q10 9 40 18 38 10 54 10 36 0 62-20t27-56q0-81-92-153T208 0q-45 0-63 5t-38 25Q-52-203-52-244q0-12 13-12l34 11q3 0 1-2-2-7-17-13t-28-7-21 15-9 24 2 16q17 64 66 143l297 441q40 66 45 87 6 21-12 21zm91-244q0 38-45 38t-82-19q-14-7-44-37Q135 71 119 47q21-19 76-19t135 62 80 146z"/><glyph unicode="ÿ" glyph-name="ydieresis" horiz-adv-x="370" d="M-56-116q48-60 83-60 57 0 123 91 48 67 94 169l38 92L135 61Q67 8 26 8 4 8-9 23t-13 34q0 43 74 141t108 99 34-23q0-9-88-103T17 43q0-13 17-13 32 0 128 75t146 124q11 13 31 39 19 22 42 22t23-22q0-4-45-71t-47-71q-31-60-95-175-97-156-194-156-32 0-56 27t-23 62zm285 459q-7 0-14 10t-7 22 29 33q30 21 46 21 1 0 3-1-1 0-14-18l-16-40q-12-27-27-27zm178 85q-1 0-14-18l-16-40q-12-27-27-27-7 0-14 10t-7 22 29 33q30 21 46 21l3-1zm-120-1q0 1-1 1h1v-1zm121 1v-1l-1 1h1z"/><glyph unicode="–" glyph-name="endash" horiz-adv-x="406" d="M210 260l104-1q57 0 82 3 1-2 1-4t-7-8q-17-10-65-18t-88-14-63-7-67 3q-88 6-88 21 0 10 8 17t16 7h15l25 1h127z"/><glyph unicode="—" glyph-name="emdash" horiz-adv-x="605" d="M286 260l187-2q92 0 135 4 7-16-142-32-59-5-177-17-25-7-147-7T19 221q0 11 9 24t16 14h20l41 1h181z"/><glyph unicode="‘" glyph-name="quoteleft" horiz-adv-x="126" d="M14 339q0 43 32 76t44 34 11-2-21-27-22-39 13-27 14-18q0-30-30-30-14 0-27 10t-14 23z"/><glyph unicode="’" glyph-name="quoteright" horiz-adv-x="139" d="M141 403q0-43-32-76t-48-34q-8 0-8 3 4 5 10 12t13 14q21 23 21 38t-13 28-14 18q0 30 29 30 15 0 28-9t14-24z"/><glyph unicode="‚" glyph-name="quotesinglbase" horiz-adv-x="86" d="M87 71q0-9-8-58T68-42q-1-4-6-4-3 0-3 8 0 64-5 109 21 3 26 3t7-1v-2z"/><glyph unicode="“" glyph-name="quotedblleft" horiz-adv-x="206" d="M115 339q0 43 32 76t44 34 12-2-22-27-22-39 13-27 14-18q0-30-29-30-15 0-28 9t-14 24zm-101 0q0 43 32 76t44 34 11-2-21-27-22-39 13-27 14-18q0-30-30-30-14 0-27 10t-14 23z"/><glyph unicode="”" glyph-name="quotedblright" horiz-adv-x="206" d="M184 403q0-43-32-76t-43-34-12 2 21 27 22 39-13 27-14 18q0 30 30 30 15 0 28-9t13-24zm-101 0q0-43-32-76T3 293q-8 0-8 3 4 5 10 12t13 14q21 23 21 38t-13 28-14 18q0 30 29 30 15 0 28-9t14-24z"/><glyph unicode="„" glyph-name="quotedblbase" horiz-adv-x="156" d="M156 71q0-9-8-58t-11-55q-1-4-6-4-3 0-3 8 0 64-5 109 21 3 26 3t7-1v-2zm-69 0q0-9-8-58T68-42q-1-4-6-4-3 0-3 8 0 64-5 109 21 3 26 3t7-1v-2z"/><glyph unicode="•" glyph-name="bullet" horiz-adv-x="537" d="M54 148v89l63 152 153 64 153-63 64-153-63-153-153-64-154 63q-63 65-63 154z"/><glyph unicode="‹" glyph-name="guilsinglleft" horiz-adv-x="340" d="M130 277q98-125 98-136t-9-11q-2 0-10 4-28 39-121 110-3 2-3 9t50 78 64 88 22 17 8-6q0-15-99-153z"/><glyph unicode="›" glyph-name="guilsinglright" horiz-adv-x="300" d="M184 288Q86 413 86 424t9 11q2 0 10-4 28-39 121-110 3-1 3-8t-50-79-64-88-22-17-8 6q0 15 99 153z"/></font>
</defs>
</svg>
